<svg xmlns="http://www.w3.org/2000/svg" width="746" height="336" viewBox="0 0 746 336"><path fill="#fff" d="M449.4 176.2l9.2-40h-5.9l-6.2 26.6-1.9 2.2c-1.2 1.5-2.9 3-4.9 4.5-2.1 1.5-3.9 2.2-5.5 2.2-3.6 0-5.4-2-5.4-6 0-2.3.5-5.5 1.5-9.6l4.6-19.9h-5.9l-4.7 20.3c-1.1 4.3-1.6 7.8-1.6 10.7s.8 5.2 2.4 7c1.6 1.8 3.9 2.7 7 2.7 2 0 4.2-.7 6.4-2.2 2.3-1.4 3.8-2.6 4.6-3.4.8-.9 1.4-1.6 1.9-2.2l-1.4 7h5.8zm-256.7-.2l.3-2.1c.5-4.1 1.2-7.6 1.9-10.6l6.1-26-3-.6c-5.7-1-10.1-1.4-13.4-1.4-4.2 0-7.9 1.6-11.1 4.9-3.2 3.3-5.5 7.1-6.9 11.5-1.4 4.4-2.1 8.8-2.1 13.2 0 7.9 3.4 11.9 10.2 11.9 1.3 0 2.6-.3 4.1-1s2.7-1.4 3.7-2.2c1-.8 2.2-1.9 3.5-3.3 1.3-1.4 2.1-2.3 2.4-2.8-.2 1.1-.7 4-1.4 8.6l5.7-.1zm-5.2-12.1c-1.4 1.8-3.2 3.5-5.4 5.2-2.2 1.7-4.1 2.6-6 2.6-1.8 0-3.2-.6-4.1-1.7-.9-1.1-1.4-3.1-1.4-6s.5-6.1 1.5-9.8c1-3.7 2.6-6.9 4.9-9.6 2.2-2.7 4.7-4.1 7.4-4.1s5.9.4 9.6 1.1l-4.6 19.6-1.9 2.7zm133.1-22.5h11.2l1.3-5.2h-11.2l2.9-11.8h-6l-2.8 11.8h-5.2l-1.4 5.2h5.3l-4.6 19.8c-.9 3.4-1.3 6.2-1.3 8.5 0 2.2.7 4 2.2 5.4 1.4 1.3 3.4 2 5.9 2 2.5 0 5.1-.4 7.9-1.1l.4-4.6-6.2.5c-2.7 0-4-1.2-4-3.7 0-1.9.3-4.1 1-6.6l4.6-20.2zm79.5-13c2.3-2 5.3-3 9.2-3 3.9 0 8.7.5 14.3 1.4l1-4.6-2.1-.6c-4.2-1.1-8.4-1.7-12.8-1.7-5.9 0-10.6 1.6-14.1 4.7s-5.2 7.4-5.2 12.8c0 3.5.9 6.1 2.8 7.8 1.9 1.7 4.8 3.3 8.8 4.6 4 1.4 6.6 2.6 7.8 3.6 1.2 1 1.8 2.7 1.8 4.8 0 4.2-1.2 7.5-3.5 9.7-2.3 2.3-5.5 3.4-9.6 3.4s-9.3-.5-15.4-1.4l-1 4.8 2.3.5c4.6 1.1 9.2 1.6 13.8 1.6 6.1 0 10.9-1.7 14.5-5.1 3.6-3.4 5.4-8.1 5.4-14 0-3.5-.8-6.1-2.4-7.8-1.6-1.7-4.5-3.3-8.6-4.8s-6.9-2.7-8.2-3.6c-1.3-1-2-2.5-2-4.6-.2-3.6.9-6.5 3.2-8.5zm-147.3 41.5l-2 .5c-4 .9-7.9 1.3-11.7 1.3-2 0-3.7-.6-5.1-1.9-1.4-1.3-2.1-3-2.1-5.3s.3-4.5.9-6.6h4.1c7.8 0 13.5-.9 17-2.8 3.6-1.9 5.4-5.2 5.4-10 0-6.5-3.9-9.8-11.8-9.8-3.6 0-6.8.9-9.6 2.6-2.9 1.8-5.1 4.1-6.8 7-3.4 5.8-5 12.4-5 19.8 0 8.1 4.2 12.2 12.7 12.2 4.4 0 8.9-.8 13.7-2.3l.3-4.7zm-5.6-29.5c4.1 0 6.2 1.6 6.2 4.8 0 3-1.2 5.1-3.6 6.3-2.4 1.1-6.3 1.7-11.8 1.7h-4.4c2.5-8.5 7.1-12.8 13.6-12.8zm-98.4 4.9c-4.1-1.5-6.9-2.7-8.2-3.6-1.3-1-2-2.5-2-4.6 0-3.8 1.1-6.7 3.4-8.7 2.3-2 5.3-3 9.2-3 3.9 0 8.7.5 14.3 1.4l1-4.6-2.1-.6c-4.2-1.1-8.4-1.7-12.8-1.7-5.9 0-10.6 1.6-14.1 4.7s-5.2 7.4-5.2 12.8c0 3.5.9 6.1 2.8 7.8 1.9 1.7 4.8 3.3 8.8 4.6 4 1.4 6.6 2.6 7.8 3.6 1.2 1 1.8 2.7 1.8 4.8 0 4.2-1.2 7.5-3.5 9.7-2.3 2.3-5.5 3.4-9.6 3.4s-9.3-.5-15.4-1.4l-1 4.8 2.3.5c4.6 1.1 9.2 1.6 13.8 1.6 6.1 0 10.9-1.7 14.5-5.1 3.6-3.4 5.4-8.1 5.4-14 0-3.5-.8-6.1-2.4-7.8-1.8-1.5-4.6-3.1-8.8-4.6zm110.8 30.9h6l13.2-57.4h-5.9l-13.3 57.4zm34.7-57.5h-5.9l-13.3 57.4h6l13.2-57.4zm11.3 17.5h-6l-9.2 40h5.9l9.3-40zm3.6-15.5h-6l-1.8 7.2h6.1l1.7-7.2zm32 37.2c7.8 0 13.5-.9 17-2.8 3.6-1.9 5.4-5.2 5.4-10 0-6.5-3.9-9.8-11.8-9.8-3.6 0-6.8.9-9.6 2.6-2.9 1.8-5.1 4.1-6.8 7-3.4 5.8-5 12.4-5 19.8 0 8.1 4.2 12.2 12.7 12.2 4.4 0 8.9-.8 13.7-2.3l.5-4.7-2 .5c-4 .9-7.9 1.3-11.7 1.3-2 0-3.7-.6-5.1-1.9-1.4-1.3-2.1-3-2.1-5.3s.3-4.5.9-6.6h3.9zm10.3-17.5c4.1 0 6.2 1.6 6.2 4.8 0 3-1.2 5.1-3.6 6.3-2.4 1.1-6.3 1.7-11.8 1.7h-4.4c2.5-8.5 7-12.8 13.6-12.8zm-130.6 30.9l-6.2.5c-2.7 0-4-1.2-4-3.7 0-1.9.3-4.1 1-6.6l4.6-20.1h11.2l1.3-5.2h-11.2l2.9-11.8h-6l-2.8 11.8h-5.2l-1.4 5.2h5.3l-4.6 19.8c-.9 3.4-1.3 6.2-1.3 8.5 0 2.2.7 4 2.2 5.4 1.4 1.3 3.4 2 5.9 2 2.5 0 5.1-.4 7.9-1.1l.4-4.7zm344 4.9h6l4.6-20.2c1.1-4.8 1.6-8.5 1.6-11.2 0-2.7-.8-4.9-2.4-6.7-1.6-1.8-3.9-2.7-7-2.7-2 0-4.1.7-6.5 2-2.3 1.3-4 2.4-4.8 3.2-.9.8-1.6 1.5-2 2-.3-1.6-1-3.1-2.2-4.6-1.3-1.7-3.5-2.5-6.5-2.5-2.6 0-5.5 1.2-8.7 3.5-1.7 1.2-3.1 2.6-4.3 4.2l1.4-7h-5.8l-9.2 40h5.9l6.2-26.6 1.8-2.2c1.3-1.5 2.9-3 5-4.5s3.9-2.2 5.4-2.2c3.6 0 5.4 2 5.4 6 0 2.3-.5 5.5-1.5 9.6l-4.6 19.9h6l4.6-20.2c.7-2.9 1.2-5.7 1.4-8.2l1.7-1.8c1.1-1.2 2.6-2.4 4.4-3.6s3.5-1.8 5-1.8c3.5 0 5.3 2 5.3 6.1 0 2.3-.5 5.5-1.5 9.5l-4.7 20zm49-51.9h-6l-2.8 11.8h-5.2l-1.4 5.2h5.3l-4.6 19.8c-.9 3.4-1.3 6.2-1.3 8.5 0 2.2.7 4 2.2 5.4 1.4 1.3 3.4 2 5.9 2 2.5 0 5.1-.4 7.9-1.1l.4-4.6-6.2.5c-2.7 0-4-1.2-4-3.7 0-1.9.3-4.1 1-6.6l4.6-20.1h11.2l1.3-5.2h-11.2l2.9-11.9zm-34.4 51.9h5.9l9.3-40h-6l-9.2 40zm-72.1-40.8c-2 0-4.1.7-6.5 2-2.3 1.3-4 2.4-4.8 3.2-.9.8-1.6 1.5-2 2-.3-1.6-1-3.1-2.2-4.6-1.3-1.7-3.5-2.5-6.5-2.5-2.6 0-5.5 1.2-8.7 3.5-1.7 1.2-3.1 2.6-4.3 4.2l1.4-7h-5.8l-9.2 40h5.9l6.2-26.6 1.8-2.2c1.3-1.5 2.9-3 5-4.5s3.9-2.2 5.4-2.2c3.6 0 5.4 2 5.4 6 0 2.3-.5 5.5-1.5 9.6l-4.6 19.9h6l4.6-20.2c.7-2.9 1.2-5.7 1.4-8.2l1.7-1.8c1.1-1.2 2.6-2.4 4.4-3.6s3.5-1.8 5-1.8c3.5 0 5.3 2 5.3 6.1 0 2.3-.5 5.5-1.5 9.5l-4.6 19.9h6l4.6-20.2c1.1-4.8 1.6-8.5 1.6-11.2 0-2.7-.8-4.9-2.4-6.7-1.7-1.7-4-2.6-7.1-2.6zm90.9-14.7h-6l-1.8 7.2h6.1l1.7-7.2zm-396.9-32.2c.4.9 1.3 1.4 2.3 1.4h127c.9 0 1.7-.5 2.2-1.2.5-.8.5-1.7.1-2.5l-42.4-84.7c-.4-.9-1.3-1.4-2.3-1.4h-127c-.9 0-1.7.5-2.2 1.2-.5.8-.5 1.7-.1 2.5l42.4 84.7zm85.3-83.3l39.7 79.5h-121.1l-39.8-79.5h121.2zm168.6 83.3c.4.9 1.3 1.4 2.3 1.4h127c.9 0 1.7-.5 2.2-1.2.5-.8.5-1.7.1-2.5l-42.4-84.7c-.4-.9-1.3-1.4-2.3-1.4h-127c-.9 0-1.7.5-2.2 1.2-.5.8-.5 1.7-.1 2.5l42.4 84.7zm85.3-83.3l39.7 79.5h-121.1l-39.8-79.5h121.2zm-167.6 84.7c9.2 0 18-2.8 25.5-7.9v5.8c0 .8.7 1.5 1.5 1.5s1.5-.7 1.5-1.5v-8.1c1-.8 1.9-1.7 2.8-2.6h7.8c.8 0 1.5-.7 1.5-1.5s-.7-1.5-1.5-1.5h-5c15.1-17.6 14.3-44.2-2.4-60.9-8.5-8.4-19.8-13.1-31.7-13.1s-23.3 4.7-31.7 13.2c-17.5 17.5-17.5 46 0 63.5 8.4 8.4 19.7 13.1 31.7 13.1zm-28.1-73c7.5-7.5 17.5-11.6 28.1-11.6 10.6 0 20.6 4.1 28.1 11.6 15.4 15.4 15.5 40.3.4 55.8v-9.2c0-.8-.7-1.5-1.5-1.5s-1.5.7-1.5 1.5v10.7h-10.7c-.8 0-1.5.7-1.5 1.5s.7 1.5 1.5 1.5h8.5c-6.7 4.9-14.9 7.6-23.4 7.6-10.6 0-20.6-4.1-28.1-11.6-15.4-15.6-15.4-40.8.1-56.3zm13.5 19.8c3.3 0 7-.7 10.5-2 10.2-3.7 16.4-10.9 14.2-16.7-1.3-3.6-5.4-5.7-11.1-5.7-3.3 0-7 .7-10.5 2-4.5 1.6-8.5 4.1-11.1 6.9-3.1 3.3-4.2 6.8-3.1 9.8 1.3 3.6 5.4 5.7 11.1 5.7zm-4.2-11.9c2.1-2.2 5.4-4.3 9.2-5.6 3-1.1 6.1-1.7 8.8-1.7 3.3 0 5.8.9 6.3 2.3.8 2.2-3.2 7.2-11.2 10.1-3 1.1-6.1 1.7-8.8 1.7-3.3 0-5.8-.9-6.3-2.3-.4-1.1.3-2.8 2-4.5zm-346.7 147.5c-.9-4.2-1.4-8.5-1.7-12.8-.1-1.5-1.4-2.7-2.9-2.6-1.5.1-2.7 1.4-2.6 2.9.3 4.5.9 9 1.8 13.5.3 1.3 1.4 2.2 2.7 2.2.2 0 .4 0 .6-.1 1.4-.1 2.4-1.6 2.1-3.1zm3.4 12.4c-.5-1.4-2.1-2.2-3.5-1.7-1.4.5-2.2 2.1-1.7 3.5 1.5 4.3 3.2 8.5 5.2 12.5.5 1 1.5 1.5 2.5 1.5.4 0 .8-.1 1.2-.3 1.4-.7 1.9-2.3 1.2-3.7-1.9-3.7-3.5-7.7-4.9-11.8zm6.8-85.6c.5.3 1 .4 1.5.4.9 0 1.8-.4 2.3-1.3 2.3-3.6 4.9-7.1 7.7-10.3 1-1.2.8-2.9-.3-3.9-1.2-1-2.9-.8-3.9.3-2.9 3.4-5.7 7.1-8.1 10.9-.8 1.4-.4 3.1.8 3.9zm31.7 136c-3.5-2.4-6.9-5.1-10.2-7.9-1.1-1-2.9-.9-3.9.2s-.9 2.9.2 3.9c3.4 3 7 5.8 10.7 8.4.5.3 1 .5 1.6.5.9 0 1.7-.4 2.3-1.2.8-1.4.5-3.1-.7-3.9zm-27.1-27.3c-.8-1.3-2.6-1.6-3.8-.8-1.3.8-1.6 2.6-.8 3.8 2.5 3.8 5.3 7.4 8.3 10.8.5.6 1.3.9 2.1.9.6 0 1.3-.2 1.8-.7 1.1-1 1.3-2.7.3-3.9-2.9-3.1-5.5-6.6-7.9-10.1zm15.9-129.1c3.2-2.9 6.5-5.6 10-8.1 1.2-.9 1.5-2.6.7-3.8-.9-1.2-2.6-1.5-3.8-.7-3.7 2.6-7.3 5.5-10.6 8.5-1.1 1-1.2 2.8-.2 3.9.5.6 1.3.9 2 .9s1.3-.2 1.9-.7zm97.3-26.2h13.2c1.5 0 2.8-1.2 2.8-2.8s-1.2-2.8-2.8-2.8h-13.2c-1.5 0-2.8 1.2-2.8 2.8s1.2 2.8 2.8 2.8zm-52.8 2.5c.2 0 .4 0 .6-.1 4.2-1 8.4-1.6 12.7-2 1.5-.1 2.6-1.5 2.5-3-.1-1.5-1.5-2.6-3-2.5-4.5.4-9 1.2-13.4 2.2-1.5.3-2.4 1.8-2.1 3.3.3 1.3 1.4 2.1 2.7 2.1zm-80 94.3h.2c1.5 0 2.7-1.1 2.8-2.6.2-4.3.8-8.6 1.6-12.8.3-1.5-.7-2.9-2.2-3.2-1.5-.3-2.9.7-3.2 2.2-.8 4.4-1.4 9-1.7 13.5-.1 1.5 1 2.8 2.5 2.9zm55.2-85.1c.4 0 .9-.1 1.3-.3 3.8-2 7.8-3.8 11.8-5.2 1.4-.5 2.2-2.1 1.6-3.5-.5-1.4-2.1-2.2-3.5-1.6-4.2 1.6-8.4 3.4-12.4 5.5-1.3.7-1.9 2.4-1.2 3.7.5.9 1.4 1.4 2.4 1.4zm-50.9 59c.3.1.6.1.9.1 1.2 0 2.2-.7 2.6-1.9 1.3-4.1 3-8.1 4.8-11.9.7-1.4.1-3-1.3-3.7-1.4-.7-3-.1-3.7 1.3-2 4.1-3.7 8.3-5.1 12.6-.5 1.5.3 3 1.8 3.5zm235.8 129.2c-1.5 0-2.8 1.2-2.8 2.8s1.2 2.8 2.8 2.8h13.2c1.5 0 2.8-1.2 2.8-2.8s-1.2-2.8-2.8-2.8h-13.2zm-92.7 0h-13.2c-1.5 0-2.8 1.2-2.8 2.8s1.2 2.8 2.8 2.8h13.2c1.5 0 2.8-1.2 2.8-2.8s-1.3-2.8-2.8-2.8zm53 0h-13.2c-1.5 0-2.8 1.2-2.8 2.8s1.2 2.8 2.8 2.8h13.2c1.5 0 2.8-1.2 2.8-2.8s-1.3-2.8-2.8-2.8zm26.5 0h-13.2c-1.5 0-2.8 1.2-2.8 2.8s1.2 2.8 2.8 2.8h13.2c1.5 0 2.8-1.2 2.8-2.8s-1.3-2.8-2.8-2.8zm-106 0h-13.2c-1.5 0-2.8 1.2-2.8 2.8s1.2 2.8 2.8 2.8h13.2c1.5 0 2.8-1.2 2.8-2.8s-1.3-2.8-2.8-2.8zm53 0h-13.2c-1.5 0-2.8 1.2-2.8 2.8s1.2 2.8 2.8 2.8h13.2c1.5 0 2.8-1.2 2.8-2.8s-1.3-2.8-2.8-2.8zm-104.4-5.7c-4-1.4-8-3.1-11.8-5.1-1.4-.7-3-.2-3.7 1.2-.7 1.4-.2 3 1.2 3.7 4 2 8.2 3.9 12.5 5.4.3.1.6.2.9.2 1.1 0 2.2-.7 2.6-1.8.5-1.5-.2-3.1-1.7-3.6zm25.2 5.4c-4.3-.3-8.6-1-12.7-1.9-1.5-.3-3 .6-3.3 2.1-.3 1.5.6 3 2.1 3.3 4.4.9 8.9 1.6 13.4 2h.2c1.4 0 2.6-1.1 2.7-2.5.2-1.6-.9-2.9-2.4-3zm24.8-199.6c1.5 0 2.8-1.2 2.8-2.8s-1.2-2.8-2.8-2.8h-13.2c-1.5 0-2.8 1.2-2.8 2.8s1.2 2.8 2.8 2.8h13.2zm615.8 78.2c.9 4.2 1.6 8.5 2 12.7.1 1.4 1.3 2.5 2.7 2.5h.3c1.5-.1 2.6-1.5 2.5-3-.4-4.5-1.1-9-2.1-13.4-.3-1.5-1.8-2.4-3.3-2.1-1.5.4-2.4 1.8-2.1 3.3zm-3.6-12.3c.4 1.1 1.5 1.8 2.6 1.8.3 0 .6-.1.9-.2 1.4-.5 2.2-2.1 1.6-3.5-1.5-4.2-3.4-8.4-5.5-12.4-.7-1.4-2.4-1.9-3.7-1.2-1.4.7-1.9 2.4-1.2 3.7 2.1 3.8 3.8 7.8 5.3 11.8zm-39.4-49.6c3.6 2.3 7 4.9 10.3 7.7.5.4 1.2.7 1.8.7.8 0 1.6-.3 2.1-1 1-1.2.9-2.9-.3-3.9-3.4-2.9-7.1-5.7-10.9-8.2-1.3-.8-3-.5-3.8.8-.9 1.3-.5 3 .8 3.9zm-23.1-11.2c4.1 1.4 8.1 3 11.9 4.9.4.2.8.3 1.2.3 1 0 2-.6 2.5-1.6.7-1.4.1-3-1.3-3.7-4.1-2-8.3-3.7-12.6-5.1-1.4-.5-3 .3-3.5 1.7s.3 3 1.8 3.5zm-51.6-5.1h13.2c1.5 0 2.8-1.2 2.8-2.8s-1.2-2.8-2.8-2.8h-13.2c-1.5 0-2.8 1.2-2.8 2.8s1.3 2.8 2.8 2.8zm119.2 127.3c-1.5-.4-3 .4-3.4 1.8-1.3 4.1-2.8 8.1-4.6 12-.6 1.4 0 3 1.4 3.7.4.2.8.2 1.1.2 1 0 2-.6 2.5-1.6 1.9-4.1 3.5-8.4 4.8-12.7.5-1.4-.4-2.9-1.8-3.4zm-10.3 24.3c-1.3-.8-3-.4-3.8.9-2.3 3.6-4.8 7.2-7.5 10.5-1 1.2-.8 2.9.4 3.9.5.4 1.1.6 1.7.6.8 0 1.6-.3 2.1-1 2.9-3.5 5.5-7.2 7.9-11 .9-1.4.5-3.1-.8-3.9zm14-50.4c-1.5-.1-2.8 1.1-2.9 2.7-.2 4.3-.6 8.6-1.3 12.8-.3 1.5.8 2.9 2.3 3.2h.5c1.3 0 2.5-1 2.7-2.3.8-4.4 1.2-9 1.4-13.5 0-1.6-1.2-2.9-2.7-2.9zm-146.7-101.2h10.5c1.5 0 2.8-1.2 2.8-2.8s-1.2-2.8-2.8-2.8h-10.5c-1.5 0-2.8 1.2-2.8 2.8s1.3 2.8 2.8 2.8zm15.9 199.9h-13.2c-1.5 0-2.8 1.2-2.8 2.8s1.2 2.8 2.8 2.8h13.2c1.5 0 2.8-1.2 2.8-2.8s-1.3-2.8-2.8-2.8zm-79.5 0h-13.2c-1.5 0-2.8 1.2-2.8 2.8s1.2 2.8 2.8 2.8h13.2c1.5 0 2.8-1.2 2.8-2.8s-1.2-2.8-2.8-2.8zm155.5-12.3c-3.8 2.1-7.7 3.9-11.7 5.5-1.4.6-2.1 2.2-1.6 3.6.4 1.1 1.5 1.8 2.6 1.8.3 0 .7-.1 1-.2 4.2-1.6 8.3-3.6 12.3-5.8 1.3-.7 1.8-2.4 1.1-3.7-.7-1.4-2.4-1.9-3.7-1.2zm-182 12.3h-13.2c-1.5 0-2.8 1.2-2.8 2.8s1.2 2.8 2.8 2.8h13.2c1.5 0 2.8-1.2 2.8-2.8s-1.2-2.8-2.8-2.8zm53 0h-13.2c-1.5 0-2.8 1.2-2.8 2.8s1.2 2.8 2.8 2.8h13.2c1.5 0 2.8-1.2 2.8-2.8s-1.3-2.8-2.8-2.8zm26.5 0h-13.2c-1.5 0-2.8 1.2-2.8 2.8s1.2 2.8 2.8 2.8h13.2c1.5 0 2.8-1.2 2.8-2.8s-1.3-2.8-2.8-2.8zm-105.9 5.5c1.5 0 2.8-1.2 2.8-2.8s-1.2-2.8-2.8-2.8h-13.2c-1.5 0-2.8 1.2-2.8 2.8s1.2 2.8 2.8 2.8h13.2zm179.9-203.6c1.3 0 2.5-.9 2.7-2.2.3-1.5-.7-2.9-2.2-3.2-4.4-.9-9-1.4-13.5-1.7-1.5-.1-2.8 1.1-2.9 2.6-.1 1.5 1.1 2.8 2.6 2.9 4.3.3 8.6.8 12.8 1.6h.5zm-21 198.1h-13.2c-1.5 0-2.8 1.2-2.8 2.8s1.2 2.8 2.8 2.8h13.2c1.5 0 2.8-1.2 2.8-2.8s-1.3-2.8-2.8-2.8zm25.5-2.9c-4.1 1-8.4 1.8-12.7 2.3-1.5.2-2.6 1.5-2.4 3.1.2 1.4 1.4 2.4 2.7 2.4h.3c4.5-.5 9-1.3 13.4-2.4 1.5-.4 2.4-1.9 2-3.3-.3-1.6-1.8-2.5-3.3-2.1zm60.4-152.8c.5 0 1.1-.2 1.6-.5 1.2-.9 1.6-2.6.7-3.8-2.6-3.7-5.4-7.3-8.5-10.6-1-1.1-2.8-1.2-3.9-.2s-1.2 2.8-.2 3.9c2.9 3.2 5.6 6.6 8 10.1.6.7 1.4 1.1 2.3 1.1zm-15.7 128.2c-3.1 3-6.4 5.7-9.9 8.3-1.2.9-1.5 2.6-.6 3.9.5.7 1.4 1.1 2.2 1.1.6 0 1.1-.2 1.6-.5 3.6-2.7 7.1-5.6 10.4-8.7 1.1-1 1.2-2.8.1-3.9-.9-1.2-2.7-1.2-3.8-.2zm-311-26.1c-.5-.7-1.2-1.1-2.1-1.1-.8 0-1.6.4-2.1 1l-59.6 79.5-28.6-28.6c-.5-.5-1.2-.8-2-.8-.7.1-1.4.4-1.9 1l-61.4 81.9c-.9 1.1-.6 2.8.5 3.6 1.1.9 2.8.6 3.6-.5l59.6-79.5 28.6 28.6c.5.5 1.3.8 2 .8.7-.1 1.4-.4 1.9-1l59.2-79 90.1 130.1c.5.7 1.3 1.1 2.1 1.1.5 0 1-.1 1.5-.5 1.2-.8 1.5-2.4.7-3.6l-92.1-133zm263.1-106.3c0-.6-.4-1-1-1s-1 .4-1 1v7.6h-7.6c-.6 0-1 .4-1 1s.4 1 1 1h7.6v7.6c0 .6.4 1 1 1s1-.4 1-1v-7.6h7.6c.6 0 1-.4 1-1s-.4-1-1-1h-7.6v-7.6zm37.2 49.6c0-.6-.4-1-1-1h-7.3v-7.3c0-.6-.4-1-1-1s-1 .4-1 1v7.3h-7.3c-.6 0-1 .4-1 1s.4 1 1 1h7.3v7.3c0 .6.4 1 1 1s1-.4 1-1v-7.3h7.3c.6 0 1-.4 1-1zm-21.8 61.4c0-.6-.4-1-1-1h-5.9v-5.9c0-.6-.4-1-1-1s-1 .4-1 1v5.9h-5.9c-.6 0-1 .4-1 1s.4 1 1 1h5.9v5.9c0 .6.4 1 1 1s1-.4 1-1v-5.9h5.9c.6 0 1-.5 1-1zm-574.8-110h-7.6v-7.5c0-.6-.4-1-1-1s-1 .4-1 1v7.6h-7.6c-.6 0-1 .4-1 1s.4 1 1 1h7.6v7.6c0 .6.4 1 1 1s1-.4 1-1v-7.6h7.6c.6 0 1-.4 1-1s-.5-1.1-1-1.1zm-40.7 62.1c0-.6-.4-1-1-1h-7.3v-7.3c0-.6-.4-1-1-1s-1 .4-1 1v7.3h-7.3c-.6 0-1 .4-1 1s.4 1 1 1h7.3v7.3c0 .6.4 1 1 1s1-.4 1-1v-7.3h7.3c.6 0 1-.4 1-1zm21.1 55.8c.6 0 1-.4 1-1v-5.9h5.9c.6 0 1-.4 1-1s-.4-1-1-1h-5.9v-5.9c0-.6-.4-1-1-1s-1 .4-1 1v5.9h-5.9c-.6 0-1 .4-1 1s.4 1 1 1h5.9v5.9c0 .5.5 1 1 1z"/></svg>