<?xml version="1.0" encoding="utf-8"?>
<svg version="1.1" id="digital-globe-flat-neg" xmlns="http://www.w3.org/2000/svg" xmlns:xlink="http://www.w3.org/1999/xlink" x="0px" y="0px"
	 width="400px" height="128px" viewBox="0 0 400 128" enable-background="new 0 0 400 128" xml:space="preserve">
<path fill="#FFFFFF" d="M105.1,111.8h7.5V72.2h-7.5V111.8z M132.4,63.3h-5.6l-1.5,9h-5.5v6.9h5.3v20.4c0,8.9,3.5,12.6,11.7,12.6
	c1,0,3.5-0.1,6-0.7v-7.1c-1.9,0.3-3.7,0.5-5.1,0.5c-3.3,0-5.3-1.2-5.3-7.3V79.1h10.5v-6.9h-10.5V63.3z M108.8,56.6
	c-2.4,0-4.4,2-4.4,4.4c0,2.4,2,4.4,4.4,4.4c2.4,0,4.4-2,4.4-4.4C113.2,58.6,111.2,56.6,108.8,56.6z M88.9,76.1
	c-4.7-2.9-8.4-4.2-11.8-4.2c-8.1,0-13.4,5.6-13.4,14.3V98c0,8.6,5.3,14.2,13.4,14.2c2.5,0,6.6-0.7,11.7-3.7v3.7c0,8-7.2,8.6-9.4,8.6
	c-2.7,0-7.1-1.4-9.4-3.6l-0.4-0.3l-4.7,5.6l0.3,0.3c3.7,3.3,8.9,5.2,14.3,5.2c8.4,0,16.9-4.9,16.9-14.3V72.2h-6.8L88.9,76.1z
	 M88.7,101.1c-3.6,2.3-8.1,3.8-11.1,3.8h-0.2c-4.1,0-6.2-2.6-6.2-7.7V87c0-5.3,2-7.7,6.4-7.7c2.9,0,7.4,1.9,11.1,4.5V101.1z
	 M51.4,56.6c-2.4,0-4.4,2-4.4,4.4c0,2.4,2,4.4,4.4,4.4c2.4,0,4.4-2,4.4-4.4C55.8,58.6,53.8,56.6,51.4,56.6z M20.5,57.2H0v54.7h20.4
	c10.8,0,18.9-7.7,18.9-17.9V75.2C39.3,64.6,31.5,57.2,20.5,57.2z M31,92.7c0,8.7-6.3,11.8-12.3,11.8H8.1V64.6h10.7
	c2.9,0,12.3,0.8,12.3,11.8V92.7z M47.6,111.8h7.6V72.2h-7.6V111.8z M398.5,72.2l-1.4,2.9l-0.9,2H396l-1-2l-1.5-3h-1.2V80h1.3v-4.7h0
	l0.8,1.6l1.1,2h0.9l1.1-2.2l0.7-1.5h0V80h1.3v-7.8H398.5z M330.9,71.8c-2.4,0-5.5,0.5-12,4.1V57.2h-7.6v54.7h6.8l0.7-3.4
	c5.8,3.4,9.4,3.8,11.9,3.8c8.2,0,13.5-5.6,13.5-14.3V86.1C344,76.9,339.4,71.8,330.9,71.8z M336.4,97.2c0,5.1-2.2,7.7-6.4,7.7
	c-3,0-8-1.8-11.2-3.9V83.9c4.8-3,8.6-4.6,11.2-4.6c4.4,0,6.4,2.4,6.4,7.7V97.2z M366.6,71.9c-9.6,0-16.1,6.2-16.1,15.5v10.2
	c0,8.9,6.6,14.6,16.7,14.6c5.9,0,10.7-1.8,14.2-5.4l0.3-0.3l-4.8-5.3l-0.3,0.3c-3.4,3.2-7.2,3.7-9.2,3.7c-2.2,0-9.2-0.6-9.2-8.1V95
	h24.5v-8.1C382.7,77.9,376.2,71.9,366.6,71.9z M375,88.6h-16.7v-1.3c0-6.2,4.5-8.4,8.4-8.4c5.3,0,8.4,3.2,8.4,8.7V88.6z M288,71.8
	c-9.7,0-16.5,6-16.5,14.7v11.2c0,8.7,6.6,14.5,16.4,14.5c9.7,0,16.5-6,16.5-14.5V86.5C304.5,77.6,298,71.8,288,71.8z M296.9,96.4
	c0,6.4-4.8,8.7-8.8,8.7c-4.1,0-8.9-1.5-8.9-8.7v-8.7c0-6.4,4.8-8.7,8.9-8.7c4.1,0,8.8,2.3,8.8,8.7V96.4z M385.2,73.4h2.2V80h1.3
	v-6.6h2.1v-1.2h-5.6V73.4z M267.6,11c-4.4-3.6-10.4-4.1-16.9-2.3c11.2-5.3,22.3-5.6,29.6,0.5c2.7,2.3,4.6,5.2,5.8,8.6
	c2.2,6.3,1.8,14.5-0.8,22.2c-0.4,1.2-1,2.5-0.9,3.7c0,1.2,0.3,2.3,1.1,3.4c0.8,1.2,2.5,2.4,4.7,2.4c2.3,0,3.9-1.2,4.7-2.2
	c0.8-1,0.9-1.7,1.5-3.4c0.8-2.6,1.5-5.2,1.9-7.8c0.4-2.2,0.6-4.5,0.7-6.6c26.3,2.7,51.9,7.6,76.6,14.6l-1.7-1.7
	c-23.9-9.3-49.1-16-75.2-19.6c-0.5-3.5-1.4-6.7-2.9-9.6c-1.5-2.9-3.4-5.4-5.9-7.5c-14-11.8-39.2-5.2-57.7,14.6
	c-35.1,2.2-68.8,9.9-100.1,22.1l-1.7,1.7c13.2-3.8,36-9.7,68.1-13.7c40.9-5,72.2-2.9,74.3-2.9C273.4,21.5,272.2,14.8,267.6,11z
	 M253,19.8c-6.1,0-12.2,0.2-18.2,0.5c9-8.3,19.3-11.5,24.7-7c1.8,1.6,2.9,3.9,3.2,6.6C259.5,19.9,256.2,19.8,253,19.8z M200.4,105
	c-3.2,0-4.3-0.6-4.3-3.9V57.2h-7.5v44.8c0,6.2,1.6,10.4,9.3,10.4c1.3,0,2.6-0.1,4-0.3l0.2,0v-7l-0.5,0
	C201.2,105,200.8,105,200.4,105z M237.7,88.7v13.2c-2.7,2-6,3-9.8,3c-5.9,0-12.1-3.1-12.1-12V76.1c0-8.8,6.6-12,12.7-12
	c4,0,8.5,1.5,11.2,3.7l0.4,0.3l4.1-6.4l-0.3-0.3c-4.1-3.3-9.2-4.9-15.4-4.9c-12.1,0-20.9,7.6-20.9,18v19.7
	c0,11.9,10.2,18.1,20.3,18.1c7.2,0,13.8-2.7,17.7-7.2l0.1-0.1V83.3h-19.2L237.7,88.7z M165.2,71.8c-5.9,0-10.8,1.5-14.9,4.7
	l-0.3,0.3l3.8,5.9l0.4-0.3c2.9-2.3,6.3-3.5,10.6-3.5c5.8,0,8.3,2,8.3,6.8v2.5h-10.9c-5.6,0-14.5,3.2-14.5,11.9
	c0,7.3,5,12.1,12.8,12.1c2.9,0,6.4-0.5,12.7-3.9l0.8,3.6h6.7V85.8C180.5,76.4,175.5,71.8,165.2,71.8z M172.9,101.2
	c-3.6,2-7.7,4-11.2,4c-4,0-6.3-1.9-6.3-5.2c0-3.7,2.6-5.5,7.8-5.5h9.8V101.2z M265.8,105c-3.2,0-4.3-0.6-4.3-3.9V57.2H254v44.8
	c0,6.2,1.6,10.4,9.3,10.4c1.3,0,2.6-0.1,4-0.3l0.2,0v-7l-0.5,0C266.6,105,266.2,105,265.8,105z"/>
</svg>
