<?xml version="1.0" encoding="utf-8"?>
<!-- Generator: Adobe Illustrator 21.1.0, SVG Export Plug-In . SVG Version: 6.00 Build 0)  -->
<svg version="1.1" id="mapbox-flat-neg" xmlns="http://www.w3.org/2000/svg" xmlns:xlink="http://www.w3.org/1999/xlink" x="0px"
	 y="0px" width="569px" height="128px" viewBox="0 0 569 128" style="enable-background:new 0 0 569 128;" xml:space="preserve">
<style type="text/css">
	.st0{fill:#FFFFFF;}
</style>
<g>
	<g>
		<path class="st0" d="M424.4,35.1c-7.1,0-14,3-18.9,8.1V15.8c0-0.9-0.7-1.6-1.6-1.6l0,0h-9.6c-0.9,0-1.6,0.7-1.6,1.6v74.2
			c0,0.9,0.7,1.6,1.6,1.6h9.6c0.9,0,1.6-0.7,1.6-1.6v0v-5.1c4.9,5.2,11.8,8.1,18.9,8.1c15,0,27.2-13,27.2-28.9
			S439.4,35.1,424.4,35.1z M422.1,81.4c-9.1,0-16.5-7.7-16.6-17.2v-0.4c0.1-9.5,7.5-17.2,16.6-17.2c9.2,0,16.6,7.8,16.6,17.4
			S431.3,81.4,422.1,81.4L422.1,81.4z"/>
		<path class="st0" d="M487.1,35.1c-16.3,0-29.5,13-29.5,28.9s13.2,28.9,29.5,28.9s29.5-13,29.5-28.9S503.3,35.1,487.1,35.1z
			 M486.9,81.4c-9.2,0-16.6-7.8-16.6-17.4s7.5-17.4,16.6-17.4s16.6,7.8,16.6,17.4S496.1,81.4,486.9,81.4L486.9,81.4z"/>
		<path class="st0" d="M307,36.5h-9.6c-0.9,0-1.6,0.7-1.6,1.6v0v5.1c-4.9-5.2-11.8-8.1-18.9-8.1c-15,0-27.2,13-27.2,28.9
			s12.2,28.9,27.2,28.9c7.1,0,14-3,18.9-8.1v5.1c0,0.9,0.7,1.6,1.6,1.6l0,0h9.6c0.9,0,1.6-0.7,1.6-1.6v0V38.1
			C308.6,37.2,307.9,36.5,307,36.5z M279.1,81.4c-9.2,0-16.6-7.8-16.6-17.4s7.5-17.4,16.6-17.4c9.1,0,16.5,7.7,16.6,17.2v0.4
			C295.7,73.7,288.3,81.4,279.1,81.4L279.1,81.4z"/>
		<path class="st0" d="M355.2,35.1c-7.1,0-14,3-18.9,8.1v-5.1c0-0.9-0.7-1.6-1.6-1.6l0,0h-9.6c-0.9,0-1.6,0.7-1.6,1.6v0v74.2
			c0,0.9,0.7,1.6,1.6,1.6l0,0h9.6c0.9,0,1.6-0.7,1.6-1.6v0V84.8c4.9,5.2,11.8,8.1,18.9,8.1c15,0,27.2-13,27.2-28.9
			S370.2,35.1,355.2,35.1z M352.9,81.4c-9.1,0-16.5-7.7-16.6-17.2v-0.4c0.1-9.5,7.5-17.2,16.6-17.2c9.2,0,16.6,7.8,16.6,17.4
			S362.1,81.4,352.9,81.4L352.9,81.4z"/>
		<path class="st0" d="M220.8,35.1c-7.2,0.1-13.8,4.3-16.8,10.8c-3.6-6.7-10.6-10.9-18.2-10.8c-5.9,0-11.4,2.9-14.9,7.6v-4.6
			c0-0.9-0.7-1.6-1.6-1.6l0,0h-9.6c-0.9,0-1.6,0.7-1.6,1.6v0v51.8c0,0.9,0.7,1.6,1.6,1.6h0h9.6c0.9,0,1.6-0.7,1.6-1.6v0v-31
			c0.4-6.9,5.2-12.4,11.1-12.4c6.1,0,11.2,5.1,11.2,11.8v31.6c0,0.9,0.7,1.6,1.6,1.6l9.7,0c0.9,0,1.6-0.7,1.6-1.6c0,0,0,0,0,0
			L206,57.7c0.8-6.3,5.4-11.2,11-11.2c6.1,0,11.2,5.1,11.2,11.8v31.6c0,0.9,0.7,1.6,1.6,1.6l9.7,0c0.9,0,1.6-0.7,1.6-1.6
			c0,0,0,0,0,0L241,54.3C241,43.7,232,35.1,220.8,35.1z"/>
		<path class="st0" d="M568.3,89.3l-16.7-25.4l16.5-25.2c0.4-0.7,0.3-1.6-0.4-2c-0.2-0.2-0.5-0.2-0.8-0.2h-11.1
			c-0.8,0-1.6,0.4-2.1,1.2l-9.7,16.3l-9.7-16.3c-0.4-0.7-1.2-1.2-2.1-1.2h-11.1c-0.8,0-1.4,0.6-1.4,1.4c0,0.3,0.1,0.6,0.2,0.8
			l16.5,25.2l-16.7,25.4c-0.4,0.7-0.3,1.6,0.4,2c0.2,0.2,0.5,0.2,0.8,0.2h11.1c0.8,0,1.6-0.4,2.1-1.2l9.9-16.6l9.9,16.6
			c0.4,0.7,1.2,1.2,2.1,1.2h11.1c0.8,0,1.4-0.6,1.4-1.4C568.6,89.8,568.5,89.5,568.3,89.3z"/>
	</g>
	<g>
		<path class="st0" d="M64,0C28.7,0,0,28.7,0,64s28.7,64,64,64s64-28.7,64-64C128,28.7,99.3,0,64,0z M94.4,79.7
			c-21.9,21.9-60.9,14.9-60.9,14.9s-7-39,14.9-60.9c12.1-12.1,32.3-11.7,45,1S106.5,67.5,94.4,79.7L94.4,79.7z"/>
		<polygon class="st0" points="71.3,37.5 65.1,50.4 52.2,56.7 65.1,62.9 71.3,75.8 77.6,62.9 90.5,56.7 77.6,50.4 		"/>
	</g>
</g>
</svg>
