<?xml version="1.0" encoding="utf-8"?>
<svg version="1.1" id="mapbox-flat-neg" xmlns="http://www.w3.org/2000/svg" xmlns:xlink="http://www.w3.org/1999/xlink" x="0px" y="0px"
	 width="480px" height="128px" viewBox="0 0 480 128" enable-background="new 0 0 480 128" xml:space="preserve">
<path fill="#FFFFFF" d="M136.9,25.3c-20.8,0-35.7,16.4-35.7,38.7s14.9,38.7,35.7,38.7h35.7V64C172.7,41.7,157.8,25.3,136.9,25.3z
	 M157.8,87.8h-20.8c-11.9,0-20.8-10.4-20.8-23.8c0-13.4,8.9-23.8,20.8-23.8c11.9,0,20.8,10.3,20.8,23.8V87.8z M64.1,6L44.7,39.1
	L25.2,6c-2.6-4.5-7.3-6-13.3-6H0v101.2h14.9V17.9l29.8,50.6l29.8-50.6v83.3h14.9V0H77.4C71.4,0,66.8,1.5,64.1,6z M451.9,62.9
	l25.9-36.1h-18.3l-16.7,23.3L426,26.8h-18.3l25.9,36.1l-27.3,38.3h18.2l18.2-25.6l18.3,25.6h18.2L451.9,62.9z M372.1,25.3
	c-20.6,0-37.2,17.3-37.2,38.7s16.7,38.7,37.2,38.7c20.6,0,37.2-17.3,37.2-38.7S392.6,25.3,372.1,25.3z M372.1,87.8
	c-12.3,0-22.3-10.7-22.3-23.8s10-23.8,22.3-23.8c12.3,0,22.3,10.7,22.3,23.8S384.4,87.8,372.1,87.8z M288.7,25.3
	c-4.7,0-8.6-0.2-13.4-0.1V0h-14.9v102.7h28.3c20.8,0,37.2-16.4,37.2-38.7S309.6,25.3,288.7,25.3z M288.7,87.8h-13.4V40.2h13.4
	c12.5,0,22.3,11.3,22.3,23.8C311.1,76.5,302.3,87.8,288.7,87.8z M212.8,25.3h-28.3V128h14.9v-25.2c4.8,0,8.7-0.1,13.4-0.1
	c20.8,0,37.2-16.4,37.2-38.7S233.7,25.3,212.8,25.3z M212.8,87.8h-13.4V40.2h13.4c13.6,0,22.3,11.3,22.3,23.8
	C235.2,76.5,225.4,87.8,212.8,87.8z"/>
</svg>
