<?xml version="1.0" encoding="utf-8"?>
<!-- Generator: Adobe Illustrator 19.0.0, SVG Export Plug-In . SVG Version: 6.00 Build 0)  -->
<svg version="1.1" id="Layer_1" xmlns="http://www.w3.org/2000/svg" xmlns:xlink="http://www.w3.org/1999/xlink" x="0px" y="0px"
	 viewBox="0 0 640.9 350" style="enable-background:new 0 0 640.9 350;" xml:space="preserve">
<style type="text/css">
	.st0{fill:#FFFFFF;}
	.st1{fill:none;}
</style>
<g>
	<path id="XMLID_69_" class="st0" d="M366.3,267.6C366.3,267.5,366.3,267.5,366.3,267.6L316,217.3c0,0,0,0,0,0s0,0,0,0l-16.7-16.7
		c-1.2-1.2-3.3-1.2-4.5,0l-3.9,3.9l-5.8-5.8l2.8-2.8c0.2-0.2,0.4-0.5,0.7-0.8c0.1-0.1,0.3-0.2,0.4-0.3c0.3-0.3,0.6-0.7,0.7-1.1
		c3.4-4.3,5.4-9.6,5.4-15.2c0-5.5-1.9-10.7-5.3-15l3.6-4.3c14.4,9.2,31,10,40.4,0.6c0.5-0.5,1.2-1.5,1.2-3.1
		c0-6.5-15.1-22.7-21.7-29.4l2.7-2.7c1.6,0.2,3.2-0.2,4.4-1.4c2.1-2.1,2.1-5.4,0-7.4c-2.1-2.1-5.4-2-7.4,0c-1.2,1.2-1.6,2.8-1.4,4.3
		l-2.7,2.7c-6.4-6.2-12.7-11.8-17.9-15.7c-8.1-6.1-12-7.4-14.6-4.8c-0.2,0.2-0.3,0.4-0.5,0.6c-4.2,4.5-6.2,10.4-6.2,17
		c0,7.3,2.5,15.3,7.3,22.7l-4.3,3.6c-8.9-6.9-21.3-6.9-30.2,0.1c-0.4,0.2-0.8,0.4-1.1,0.7c-0.1,0.1-0.2,0.3-0.3,0.4
		c-0.3,0.2-0.5,0.4-0.8,0.6l-2.8,2.8l-5.8-5.8l3.9-3.9c1.2-1.2,1.2-3.3,0-4.5l-33.5-33.5c0,0,0,0,0,0c0,0,0,0,0,0l-33.5-33.5
		c-1.2-1.2-3.3-1.2-4.5,0l-19.9,19.9c0,0,0,0,0,0c0,0,0,0,0,0l-19.9,19.9c-0.3,0.3-0.5,0.7-0.7,1c-0.2,0.4-0.2,0.8-0.2,1.2
		c0,0.4,0.1,0.8,0.2,1.2c0.2,0.4,0.4,0.7,0.7,1l16.8,16.7v0c0,0,0,0,0,0l50.2,50.2c1.2,1.2,3.3,1.2,4.5,0l3.9-3.9l5.8,5.8l-2.8,2.8
		c-0.2,0.2-0.4,0.5-0.7,0.8c-0.1,0.1-0.3,0.2-0.4,0.3c-0.3,0.3-0.6,0.7-0.7,1.1c-3.4,4.3-5.4,9.6-5.4,15.2c0,5,1.5,9.8,4.4,13.9
		l4.2,4.8l9.9,9.9l4.8,4.2c8.8,6.3,20.8,6,29.3-0.8c0.4-0.2,0.8-0.4,1.1-0.7c0.1-0.1,0.2-0.3,0.3-0.4c0.3-0.2,0.5-0.4,0.8-0.6
		l2.8-2.8l5.8,5.8l-3.9,3.9c-0.6,0.6-0.9,1.4-0.9,2.3s0.3,1.6,0.9,2.3l67,67c0.3,0.3,0.7,0.5,1,0.7c1.2,0.5,2.5,0.2,3.5-0.7
		l39.7-39.7C367.5,270.8,367.5,268.8,366.3,267.6z M342.8,253l-15.4,15.4l-12.2-12.2l15.4-15.4L342.8,253z M326,236.2l-15.4,15.4
		l-12.2-12.2l15.4-15.4L326,236.2z M297,207.3l12.2,12.2l-15.4,15.4l-12.2-12.2l3.9-3.9c0,0,0,0,0,0l2.3-2.3L297,207.3z
		 M286.4,208.9l-3.1,3.1l-5.8-5.8l3.1-3.1L286.4,208.9z M278.8,216.5l-3.9,3.9c0,0,0,0,0,0c0,0,0,0,0,0l-3.9,3.9l-5.8-5.8l7.8-7.8
		L278.8,216.5z M308.8,131.8c8.6,8.8,14.3,15.8,17.2,20.2c-4.4-3-11.4-8.6-20.2-17.2L308.8,131.8z M304.3,127.3l-3,3
		c-8.6-8.8-14.2-15.8-17.2-20.1C288.5,113,295.5,118.7,304.3,127.3z M277.6,111.7c5.4,9.1,18.3,22.2,21.5,25.4
		c10.9,10.9,19.4,18.1,25.4,21.4c-9.7,4.3-24.4,0.1-35.7-11.2C277.5,136,273.3,121.4,277.6,111.7z M288.3,155.4l-2.8,3.3l-8.1-8.1
		l3.3-2.8c1.1,1.4,2.3,2.7,3.6,4C285.6,153.1,286.9,154.3,288.3,155.4z M270.4,152.6l13,13c3.4,3.4,5.3,8,5.3,12.8
		c0,3.2-0.9,6.3-2.5,9l-37.7-37.7C255.5,145.8,264.5,146.7,270.4,152.6z M232.9,155.5l-3.1,3.1l-5.8-5.8l3.1-3.1L232.9,155.5z
		 M225.4,163l-7.8,7.8l-5.8-5.8l3.9-3.9c0,0,0,0,0,0s0,0,0,0l3.9-3.9L225.4,163z M228.8,139l-15.4,15.4l-12.2-12.2l15.4-15.4
		L228.8,139z M212,122.3l-15.4,15.4l-12.2-12.2l15.4-15.4L212,122.3z M195.3,105.5l-15.4,15.4l-12.2-12.2l15.4-15.4L195.3,105.5z
		 M166.3,76.5l12.2,12.2l-15.4,15.4L151,91.9L166.3,76.5z M131.1,111.8l15.4-15.4l12.2,12.2L143.3,124L131.1,111.8z M147.8,128.5
		l15.4-15.4l12.2,12.2l-15.4,15.4L147.8,128.5z M164.6,145.3l15.4-15.4l12.2,12.2l-15.4,15.4L164.6,145.3z M193.6,174.3L181.3,162
		l15.4-15.4l12.2,12.2L193.6,174.3z M204.2,172.6l3.1-3.1l5.8,5.8l-3.1,3.1L204.2,172.6z M233,234.2c-4.8,0-9.4-1.9-12.8-5.3l-13-13
		c-3.4-3.4-5.3-8-5.3-12.8c0-3.2,0.9-6.3,2.5-9l37.7,37.7C239.3,233.3,236.2,234.2,233,234.2z M247,227.7l-38.6-38.6l35.2-35.2
		l38.6,38.6L247,227.7z M257.7,226.1l3.1-3.1l5.8,5.8l-3.1,3.1L257.7,226.1z M261.8,242.5l9.2-9.2l2.3-2.3c0,0,0,0,0,0l3.9-3.9
		l12.2,12.2L274,254.7L261.8,242.5z M278.6,259.2l15.4-15.4l12.2,12.2l-15.4,15.4L278.6,259.2z M295.3,276l15.4-15.4l12.2,12.2
		l-15.4,15.4L295.3,276z M324.3,305L312,292.7l15.4-15.4l12.2,12.2L324.3,305z M344.2,285.1l-12.2-12.2l15.4-15.4l12.2,12.2
		L344.2,285.1z"/>
</g>
<g>
	<path id="XMLID_68_" class="st0" d="M319.6,83.8c18.2,0,33,14.8,33,33c0,1.8,1.4,3.2,3.2,3.2c1.8,0,3.2-1.4,3.2-3.2
		c0-21.7-17.7-39.4-39.4-39.4c-1.8,0-3.2,1.4-3.2,3.2C316.4,82.4,317.8,83.8,319.6,83.8z"/>
</g>
<g>
	<path id="XMLID_67_" class="st0" d="M319.6,95.9c5.6,0,10.8,2.2,14.8,6.1c4,4,6.1,9.2,6.1,14.8v0c0,1.8,1.4,3.2,3.2,3.2
		c1.8,0,3.2-1.4,3.2-3.2v0c0-7.3-2.8-14.1-8-19.3c-5.2-5.2-12-8-19.3-8c-1.8,0-3.2,1.4-3.2,3.2C316.4,94.5,317.8,95.9,319.6,95.9z"
		/>
</g>
<g>
	<path id="XMLID_64_" class="st0" d="M258.1,178.4c-3.4-3.4-7.8-5.2-12.6-5.2s-9.2,1.9-12.6,5.2c-3.4,3.4-5.2,7.8-5.2,12.6
		c0,4.8,1.9,9.2,5.2,12.6c6.9,6.9,18.2,6.9,25.2,0c3.4-3.4,5.2-7.8,5.2-12.6C263.3,186.2,261.4,181.7,258.1,178.4z M253.6,199
		c-4.5,4.5-11.7,4.5-16.1,0c-4.3-4.3-4.3-11.8,0-16.2c2.2-2.2,5-3.3,8.1-3.3c3.1,0,5.9,1.2,8.1,3.3c2.2,2.2,3.3,5,3.3,8.1
		C256.9,194,255.7,196.9,253.6,199z"/>
</g>
<g>
	<path id="XMLID_63_" class="st0" d="M319.6,108c4.9,0,8.9,4,8.9,8.9c0,1.8,1.4,3.2,3.2,3.2c1.8,0,3.2-1.4,3.2-3.2
		c0-8.4-6.8-15.3-15.3-15.3c-1.8,0-3.2,1.4-3.2,3.2C316.4,106.5,317.8,108,319.6,108z"/>
</g>
<g>
	<path id="XMLID_62_" class="st0" d="M128.3,164c-3.2,0-5.9,2.6-5.9,5.9s2.6,5.9,5.9,5.9c3.2,0,5.9-2.6,5.9-5.9S131.5,164,128.3,164
		z"/>
</g>
<g>
	<g>
		<path id="XMLID_59_" class="st0" d="M121.3,189.9c-4.8,0-8.8,3.9-8.8,8.8c0,4.8,3.9,8.8,8.8,8.8s8.8-3.9,8.8-8.8
			C130.1,193.9,126.1,189.9,121.3,189.9z M121.3,201.6c-1.6,0-2.8-1.3-2.8-2.8c0-1.6,1.3-2.9,2.8-2.9s2.8,1.3,2.8,2.9
			C124.2,200.3,122.9,201.6,121.3,201.6z"/>
	</g>
</g>
<g>
	<path id="XMLID_58_" class="st0" d="M151,181.6c-3.2,0-5.9,2.6-5.9,5.9s2.6,5.9,5.9,5.9c3.2,0,5.9-2.6,5.9-5.9
		S154.2,181.6,151,181.6z"/>
</g>
<g>
	<path id="XMLID_57_" class="st0" d="M378.1,177.9c-3.2,0-5.9,2.6-5.9,5.9s2.6,5.9,5.9,5.9s5.9-2.6,5.9-5.9S381.3,177.9,378.1,177.9
		z"/>
</g>
<g>
	<path id="XMLID_56_" class="st0" d="M337.7,195.7c-3.2,0-5.9,2.6-5.9,5.9s2.6,5.9,5.9,5.9s5.9-2.6,5.9-5.9S340.9,195.7,337.7,195.7
		z"/>
</g>
<g>
	<path id="XMLID_55_" class="st0" d="M364.6,154.3c-3.2,0-5.9,2.6-5.9,5.9s2.6,5.9,5.9,5.9s5.9-2.6,5.9-5.9S367.9,154.3,364.6,154.3
		z"/>
</g>
<g>
	<path id="XMLID_54_" class="st0" d="M239.3,114.4c3.2,0,5.9-2.6,5.9-5.9s-2.6-5.9-5.9-5.9c-3.2,0-5.9,2.6-5.9,5.9
		S236,114.4,239.3,114.4z"/>
</g>
<g>
	<path id="XMLID_53_" class="st0" d="M280.6,84.2c3.2,0,5.9-2.6,5.9-5.9s-2.6-5.9-5.9-5.9c-3.2,0-5.9,2.6-5.9,5.9
		S277.4,84.2,280.6,84.2z"/>
</g>
<g>
	<path id="XMLID_52_" class="st0" d="M218.8,271.9c-3.2,0-5.9,2.6-5.9,5.9s2.6,5.9,5.9,5.9s5.9-2.6,5.9-5.9S222,271.9,218.8,271.9z"
		/>
</g>
<g>
	<g>
		<path id="XMLID_49_" class="st0" d="M245.6,278.4c-6.8,0-12.4,5.6-12.4,12.4s5.6,12.4,12.4,12.4c6.8,0,12.4-5.6,12.4-12.4
			S252.4,278.4,245.6,278.4z M245.6,297.2c-3.6,0-6.5-2.9-6.5-6.5c0-3.6,2.9-6.5,6.5-6.5s6.5,2.9,6.5,6.5
			C252.1,294.3,249.2,297.2,245.6,297.2z"/>
	</g>
</g>
<g>
	<g>
		<path id="XMLID_46_" class="st0" d="M248.2,60.1c-6.8,0-12.4,5.6-12.4,12.4c0,6.8,5.6,12.4,12.4,12.4c6.8,0,12.4-5.6,12.4-12.4
			C260.6,65.6,255,60.1,248.2,60.1z M248.2,78.9c-3.6,0-6.5-2.9-6.5-6.5c0-3.6,2.9-6.5,6.5-6.5c3.6,0,6.5,2.9,6.5,6.5
			S251.8,78.9,248.2,78.9z"/>
	</g>
</g>
<g>
	<g>
		<path class="st1" d="M199.4,198.6c0,2.7,1,5.2,2.9,7.1l31.3,31.3c3.2,3.2,7.9,3.7,11.7,1.7L200.6,194
			C199.8,195.4,199.4,196.9,199.4,198.6z"/>
	</g>
	<g>
		<polygon class="st1" points="207.7,235.8 214.3,242.4 220.6,232.3 215.9,227.6 		"/>
	</g>
	<g>
		<polygon class="st1" points="223.6,251.6 228,239.8 224.9,236.6 218.6,246.7 		"/>
	</g>
	<g>
		<polygon class="st1" points="202.6,214.4 199.5,211.2 199.1,211.3 202.4,214.5 		"/>
	</g>
	<g>
		<polygon class="st1" points="203.5,231.6 211.6,223.4 206.8,218.7 196.9,225 		"/>
	</g>
	<g>
		<polygon class="st1" points="211.7,223.4 206.9,218.6 206.8,218.7 211.6,223.4 		"/>
	</g>
	<g>
		<polygon class="st1" points="192.6,220.7 202.4,214.5 199.1,211.3 187.6,215.7 		"/>
	</g>
	<g>
		<path id="XMLID_40_" class="st0" d="M203.5,231.6l-6.6-6.6l9.9-6.2l-4.4-4.2l-9.8,6.2l-5-5l11.5-4.3v-6.4l-17.8,6.9
			c-0.9,0.4-1.6,1.2-1.8,2.1c-0.2,1,0.1,2,0.8,2.7l42.4,42.4c0.6,0.6,1.3,0.9,2.1,0.9c0.2,0,0.4,0,0.6-0.1c1-0.2,1.8-0.9,2.1-1.9
			l7.4-19.1l-24-14.7L203.5,231.6z M228,239.8l-4.5,11.9l-5-5l6.3-10L228,239.8z M214.3,242.4l-6.6-6.6l8.2-8.2l4.8,4.8L214.3,242.4
			z"/>
	</g>
</g>
<g>
	<path id="XMLID_42_" class="st0" d="M68.3,316.1c-0.8,0-1.6-0.3-2.2-1c-1.1-1.2-1-3.1,0.2-4.2l61.7-56.5c0.7-0.6,1.5-0.9,2.4-0.8
		c0.9,0.1,1.7,0.6,2.1,1.4l17.5,27.6l39.5-37.5c1.2-1.1,3.1-1.1,4.2,0.1c1.1,1.2,1.1,3.1-0.1,4.2l-42.1,40c-0.7,0.6-1.5,0.9-2.4,0.8
		c-0.9-0.1-1.7-0.6-2.2-1.4l-17.5-27.6l-59.1,54.1C69.8,315.8,69.1,316.1,68.3,316.1z"/>
</g>
<g>
	<path id="XMLID_41_" class="st0" d="M591,316.1c-1,0-1.9-0.5-2.5-1.3L460.8,125.2l-28.2,16.9c-1.4,0.8-3.2,0.4-4.1-1l-57-91
		l-17.3,17.9c-1.2,1.2-3,1.2-4.2,0.1c-1.2-1.2-1.2-3.1-0.1-4.2l20-20.7c0.6-0.7,1.5-1,2.5-0.9c0.9,0.1,1.7,0.6,2.2,1.4l57.5,91.7
		l28.1-16.9c1.4-0.8,3.1-0.4,4,0.9l129.3,191.9c0.9,1.4,0.6,3.2-0.8,4.2C592.2,315.9,591.6,316.1,591,316.1z"/>
</g>
</svg>
