<svg xmlns="http://www.w3.org/2000/svg" width="750" height="128" viewBox="0 0 750 128"><path fill="#FFF" d="M120 0H8C3.6 0 0 3.6 0 8v112c0 4.4 3.6 8 8 8h57.6c0-4 1.2-6.4.4-10.4C58 94 45.2 90.4 21.2 78c7.6 0 14.4.8 20.8 5.2C38.8 78 34.8 78 31.2 74c0 0 7.6 2.8 10 4 14.4 8.4 18.8 18 26.4 36.8-.4-4-.4-10.8-.8-12.4-.4-2.4-5.6-13.2-9.6-18.4-14-18.4-26.8-35.6-42.8-52 8.8 6 29.6 21.6 34.8 29.2C46.8 50 36.4 38.4 26.4 29.6 44 34 56.8 62.4 64 77.2c.8 2.8 2.8 9.2 3.6 11.6 0 .8.8 2.8 1.2 5.2l-.4-3.6s-1.6-8.4-2-11.2c-3.2-16.8-7.2-33.2-8-50 0-3.2-1.6-11.6-2.4-15.6-.8-4.4-4.8-12-4.8-12.4 0 0 4.8 3.6 6.4 5.2 5.2 6 4 13.2 8.4 19.2-1.6-8.8 0-14.4-7.6-20.8C68 8 65.6 13.6 68.4 22c2.8-7.2 6-16.4 14.8-18-8 6.8-5.2 58.8-11.2 76.4 0 1.2-1.6 25.2-2 28.8.8-3.2 1.6-5.6 4-7.6-.8 2.4-1.6 4.8-1.6 7.2 4-6.4 6.4-5.6 12-7.6-6 4-10 6.8-12.4 13.2-.8 1.2-.8 6.4-1.2 8v5.6H120c4.4 0 8-3.6 8-8V8c0-4.4-3.6-8-8-8zM91.2 66C86 77.6 80.8 86 79.6 87.6c-2.8 3.6-5.2 7.6-6 12-5.2-11.6 6-33.2 6.8-36.8 2.8-9.2 8-24.4 17.2-30.4-6.8 8-9.2 19.2-9.6 29.6 0 0 6-7.2 8-9.2 5.6-5.6 10-10 17.6-11.2-10.4 5.6-18 12.8-22.4 24.4zM624 63.2c-2-1.2-4-2.4-6.4-3.2l-6.4-2.8c-2-1.2-4-2-5.2-3.6-1.2-1.2-2-3.2-2-5.6 0-1.2.4-2.4.8-3.2s1.2-1.6 2-2.4c.8-.4 2-1.2 3.2-1.6s2.8-.8 4.4-.8c1.6 0 3.2.4 4.4.8 1.2.4 2 .8 2.8 1.6.8.4 1.2 1.6 1.6 2.4.4 1.2.4 2 .4 3.2l6-.8c0-1.6-.4-3.2-.8-4.8-.4-1.6-1.2-2.8-2.4-4-1.2-1.2-2.8-2-4.8-2.8-1.6-.8-4-1.2-6.8-1.2s-5.2 0-7.2.8-3.6 1.6-5.2 2.8c-1.2 1.2-2.4 2.8-3.2 4.4-.8 2-1.2 4-1.2 6 0 3.2.8 5.6 2 7.6s2.8 3.6 4.8 4.8 4 2.4 6.4 3.2 4.4 2 6.4 2.8c2 1.2 3.6 2 4.8 3.6 1.2 1.2 2 3.2 2 5.6 0 2.8-.8 5.2-2.8 6.8s-4.4 2.4-7.6 2.4c-2.4 0-4-.4-5.6-.8-1.2-.4-2.4-1.2-3.2-2-.8-.8-1.2-1.6-1.6-2.8s-.4-2-.4-3.2l-6 .8c-.4 4 .4 7.6 3.2 10 2.8 2.4 6.8 3.6 12.8 3.6 2.4 0 4.8-.4 7.2-1.2 2-.8 4-2 5.6-3.2 1.6-1.2 2.8-2.8 3.6-4.8.8-2 1.2-4 1.6-6 0-3.2-.8-5.6-2-7.6-1.6-2-3.2-3.6-5.2-4.8zm21.6 1.6h16v-5.6h-16v-18H666l.4-5.6h-27.6v54.8h28v-5.6h-21.2v-20zm36.4 0h16v-5.6h-16v-18h20.4l.4-5.6h-27.6v54.8h28v-5.6H682v-20zm60.8-22c-4-4.8-10.4-7.2-18.4-7.2h-11.6V90h11.6c4 0 7.2-.8 10.4-2 2.8-1.2 5.6-3.2 7.6-5.6 2-2.4 3.6-5.2 4.8-8.8 1.2-3.6 1.6-7.2 1.6-11.2 0-8.4-2-14.8-6-19.6zm-5.2 36c-2.8 3.6-6.8 5.6-12.4 5.6h-5.6V40.8h4.4c6.4 0 10.8 2 13.6 6 2.8 4 4 9.2 4.4 16 0 6.8-1.6 12.4-4.4 16zm-470-15.2l-5.2 19.2c-2-6.8-4-13.2-5.6-19.6L252 44h-6.8c.8 3.2 1.6 6.8 2.4 10.4 1.2 3.2 2 7.2 3.2 10.8l3.6 12c1.6 4 2.8 8.4 4.4 13.2h7.2c1.6-4.4 2.8-8.8 4-12.8 1.2-4.4 2.4-8.4 3.6-12 1.2-4 2.4-7.6 3.2-11.2 1.2-3.6 2-7.2 2-10.4h-6.4c-1.6 6.8-3.2 13.2-4.8 19.6zm314.8 22h-2c-1.6 0-2.8-.4-3.6-.8s-1.6-1.2-2-2c-.4-.8-.8-2-.8-3.6v-30h8.8l.4-5.6h-9.6V30l-6.8.8v12.8H560v5.6h6.8v25.6c0 2.8 0 5.6.4 7.6 0 2.4.8 4 1.6 5.2s2 2.4 3.6 2.8c1.6.4 4 .8 6.4.8 2 0 4-.4 6.4-.4l-.8-5.6-2 .4zm-349.2-1.2c-2 .8-4.4 1.2-6.4 1.2-3.6 0-6-1.2-8-4S216 74.4 216 68v-.8h26.8c.4-8.4-.8-14.8-3.6-18.8-3.2-4-7.2-6-12.8-6s-10 2.4-13.2 6.8c-3.2 4.4-4.8 11.2-4.8 20 0 7.6 1.6 13.2 4.4 16.8 2.8 3.6 7.2 5.2 13.2 5.2 3.2 0 6.4-.8 9.2-2 2.8-1.2 5.2-2.4 8-4l-2.8-4.8c-2.8 2-5.2 3.2-7.2 4zm-14-32.8c1.6-2.4 4-3.6 6.8-3.6s5.2 1.2 6.8 3.6c1.6 2.4 2.4 6 2.4 10.4h-18.8c.4-4.4 1.2-8 2.8-10.4zm-23.2-8c0-.4-3.2-.4-4.4-.8-1.2 0-2.4-.4-4.4-.4-3.2 0-6.4.4-8.8 1.6s-4.4 2.8-6 4.8c-1.6 2-2.8 4.8-3.6 8-.4 3.2-.8 6.8-.8 10.4 0 7.6 1.2 13.6 4 17.6s6.8 6 11.6 6c3.2 0 5.6-.4 7.6-1.6 2-1.2 3.6-2 5.2-4.8l.4 7.2h7.2V24h-8v19.6zm0 26.4c0 2-.4 4-.8 6s-1.2 3.6-2.4 4.8c-.8 1.2-2 2.4-3.6 3.2-1.2.8-2.8 1.2-4.4 1.2-3.2 0-5.6-1.6-7.2-4.8-1.6-3.2-2.4-7.6-2.4-14 0-6 .8-10.4 2.8-13.6 1.6-3.2 4.8-4.4 8.8-4.4 2 0 3.6 0 5.2.4s4 .8 4 1.2v20zm126 20v.4h6.8V26H322v64zm31.2-47.2c-6.4 0-11.2 2-14 6-2.8 4.4-4.4 10.4-4.4 18.8 0 8 1.6 14 4.4 18 2.8 3.6 7.2 5.6 13.2 5.6 12 0 18-8 18-24.4 0-8-1.2-14-4-18s-7.2-6-13.2-6zm-.4 42.4c-3.6 0-6.4-1.6-8-4.4-1.6-2.8-2.4-7.6-2.4-14.4 0-6.4.8-10.8 2.4-14 1.6-2.8 4-4.4 7.6-4.4 4 0 6.8 1.6 8.4 4.8 1.2 2.8 2 7.6 2 14 0 12.4-3.6 18.4-10 18.4zm190.8-42.8c-2.4 0-4.4.8-6.8 2-2 1.6-4.4 3.2-6.8 4.8l-.4-5.6h-6V90h6.8V54.4c2.4-2 4.8-3.6 6.4-4.8s3.2-1.6 4.8-1.6c2.4 0 4 .8 4.8 2.8s1.2 4.8 1.2 8V90h6.4V57.2c0-5.2-.8-8.8-2.4-11.2-1.2-2.4-4-3.6-8-3.6zm-28.4 38c-2.8 2-5.2 3.2-7.2 4-2 .8-4.4 1.2-6.4 1.2-3.6 0-6-1.2-8-4s-2.8-7.2-2.8-13.6v-.8h26.8c.4-8.4-.8-14.8-3.6-18.8-3.2-4-7.2-6-12.8-6-5.6 0-10 2.4-13.2 6.8-3.2 4.4-4.8 11.2-4.8 20 0 7.6 1.6 13.2 4.4 16.8 2.8 3.6 7.2 5.2 13.2 5.2 3.2 0 6.4-.8 9.2-2 2.4-1.2 5.2-2.4 8-4l-2.8-4.8zm-21.6-28.8c1.6-2.4 4-3.6 6.8-3.6s5.2 1.2 6.8 3.6c1.6 2.4 2.4 6 2.4 10.4h-18.8c.4-4.4 1.2-8 2.8-10.4zm-26.4-8.8c-2.4 0-4.4.8-6.8 2s-4.8 2.8-7.2 4.8c-.8-2.4-2-4-3.2-5.2-1.2-1.2-3.2-2-6-2-2.4 0-4.8.8-6.8 2l-6.8 4.8-.4-5.6h-6V90h6.8V54.4c2.8-2 4.8-3.6 6.4-4.8s3.2-1.6 4.8-1.6c2.4 0 4 .8 4.4 2.8.4 2 .8 4.8.8 8V90h6.8V54.4c2.8-2 4.8-3.6 6.4-4.8s3.2-1.6 4.8-1.6c2.4 0 4 .8 4.4 2.8.4 2 .8 4.8.8 8v31.6h6.8V57.6c0-5.2-.4-8.8-2-11.2-1.6-2.4-4-3.6-8-3.6zm-68.8-.4c-3.2 0-5.6.4-7.6 1.6s-3.6 2.8-5.2 5.6l-.4-6h-6v62h6.8V90c2 .4 3.2.8 4.4.8 1.2.4 2.8.4 4.4.4 6.8 0 11.6-2.4 14.8-6.8C412.8 80 414 74 414 66c0-7.6-1.2-13.6-4-17.6s-6.4-6-11.6-6zm6 38.8c-2 2.8-4.8 4.4-8.8 4.4-2 0-3.6 0-5.2-.4s-2.8-.8-4-1.2V63.6c0-2.4 0-4 .8-6s1.6-3.6 2.4-4.8c.8-1.2 2-2.4 3.2-3.2s2.8-1.2 4.4-1.2c3.2 0 5.6 1.6 7.2 4.8 1.6 2.8 2.4 7.6 2.8 14.4 0 6-.8 10.8-2.8 13.6zm-98 3.2c-2 .8-4.4 1.2-6.4 1.2-3.6 0-6-1.2-8-4s-2.8-7.2-2.8-13.6v-.8H316c.4-8.4-.8-14.8-3.6-18.8-3.2-4-7.2-6-12.8-6-5.6 0-10 2.4-13.2 6.8-3.2 4.4-4.8 11.2-4.8 20 0 7.6 1.6 13.2 4.4 16.8 2.8 3.6 7.2 5.2 13.2 5.2 3.2 0 6.4-.8 9.2-2 2.8-1.2 5.2-2.4 8-4l-2.8-4.8c-2.8 2-5.2 3.2-7.2 4zm-14-32.8c1.6-2.4 4-3.6 6.8-3.6s5.2 1.2 6.8 3.6c1.6 2.4 2.4 6 2 10.4h-18.4c.4-4.4 1.2-8 2.8-10.4z"/></svg>