<svg xmlns="http://www.w3.org/2000/svg" width="400" height="128" viewBox="0 0 400 128"><path fill="#FFF" d="M105.1 111.8h7.5V72.2h-7.5v39.6zm27.3-48.5h-5.6l-1.5 9h-5.5v6.9h5.3v20.4c0 8.9 3.5 12.6 11.7 12.6 1 0 3.5-.1 6-.7v-7.1c-1.9.3-3.7.5-5.1.5-3.3 0-5.3-1.2-5.3-7.3V79.1h10.5v-6.9h-10.5v-8.9zm-23.6-6.7c-2.4 0-4.4 2-4.4 4.4 0 2.4 2 4.4 4.4 4.4 2.4 0 4.4-2 4.4-4.4 0-2.4-2-4.4-4.4-4.4zM88.9 76.1c-4.7-2.9-8.4-4.2-11.8-4.2-8.1 0-13.4 5.6-13.4 14.3V98c0 8.6 5.3 14.2 13.4 14.2 2.5 0 6.6-.7 11.7-3.7v3.7c0 8-7.2 8.6-9.4 8.6-2.7 0-7.1-1.4-9.4-3.6l-.4-.3-4.7 5.6.3.3c3.7 3.3 8.9 5.2 14.3 5.2 8.4 0 16.9-4.9 16.9-14.3V72.2h-6.8l-.7 3.9zm-.2 25c-3.6 2.3-8.1 3.8-11.1 3.8h-.2c-4.1 0-6.2-2.6-6.2-7.7V87c0-5.3 2-7.7 6.4-7.7 2.9 0 7.4 1.9 11.1 4.5v17.3zM51.4 56.6c-2.4 0-4.4 2-4.4 4.4 0 2.4 2 4.4 4.4 4.4 2.4 0 4.4-2 4.4-4.4 0-2.4-2-4.4-4.4-4.4zm-30.9.6H0v54.7h20.4c10.8 0 18.9-7.7 18.9-17.9V75.2c0-10.6-7.8-18-18.8-18zM31 92.7c0 8.7-6.3 11.8-12.3 11.8H8.1V64.6h10.7c2.9 0 12.3.8 12.3 11.8v16.3zm16.6 19.1h7.6V72.2h-7.6v39.6zm350.9-39.6l-1.4 2.9-.9 2h-.2l-1-2-1.5-3h-1.2V80h1.3v-4.7l.8 1.6 1.1 2h.9l1.1-2.2.7-1.5V80h1.3v-7.8h-1zm-67.6-.4c-2.4 0-5.5.5-12 4.1V57.2h-7.6v54.7h6.8l.7-3.4c5.8 3.4 9.4 3.8 11.9 3.8 8.2 0 13.5-5.6 13.5-14.3V86.1c-.2-9.2-4.8-14.3-13.3-14.3zm5.5 25.4c0 5.1-2.2 7.7-6.4 7.7-3 0-8-1.8-11.2-3.9V83.9c4.8-3 8.6-4.6 11.2-4.6 4.4 0 6.4 2.4 6.4 7.7v10.2zm30.2-25.3c-9.6 0-16.1 6.2-16.1 15.5v10.2c0 8.9 6.6 14.6 16.7 14.6 5.9 0 10.7-1.8 14.2-5.4l.3-.3-4.8-5.3-.3.3c-3.4 3.2-7.2 3.7-9.2 3.7-2.2 0-9.2-.6-9.2-8.1V95h24.5v-8.1c0-9-6.5-15-16.1-15zm8.4 16.7h-16.7v-1.3c0-6.2 4.5-8.4 8.4-8.4 5.3 0 8.4 3.2 8.4 8.7v1zm-87-16.8c-9.7 0-16.5 6-16.5 14.7v11.2c0 8.7 6.6 14.5 16.4 14.5 9.7 0 16.5-6 16.5-14.5V86.5c.1-8.9-6.4-14.7-16.4-14.7zm8.9 24.6c0 6.4-4.8 8.7-8.8 8.7-4.1 0-8.9-1.5-8.9-8.7v-8.7c0-6.4 4.8-8.7 8.9-8.7 4.1 0 8.8 2.3 8.8 8.7v8.7zm88.3-23h2.2V80h1.3v-6.6h2.1v-1.2h-5.6v1.2zM267.6 11c-4.4-3.6-10.4-4.1-16.9-2.3 11.2-5.3 22.3-5.6 29.6.5 2.7 2.3 4.6 5.2 5.8 8.6 2.2 6.3 1.8 14.5-.8 22.2-.4 1.2-1 2.5-.9 3.7 0 1.2.3 2.3 1.1 3.4.8 1.2 2.5 2.4 4.7 2.4 2.3 0 3.9-1.2 4.7-2.2.8-1 .9-1.7 1.5-3.4.8-2.6 1.5-5.2 1.9-7.8.4-2.2.6-4.5.7-6.6 26.3 2.7 51.9 7.6 76.6 14.6l-1.7-1.7c-23.9-9.3-49.1-16-75.2-19.6-.5-3.5-1.4-6.7-2.9-9.6-1.5-2.9-3.4-5.4-5.9-7.5-14-11.8-39.2-5.2-57.7 14.6-35.1 2.2-68.8 9.9-100.1 22.1l-1.7 1.7c13.2-3.8 36-9.7 68.1-13.7 40.9-5 72.2-2.9 74.3-2.9.6-6-.6-12.7-5.2-16.5zM253 19.8c-6.1 0-12.2.2-18.2.5 9-8.3 19.3-11.5 24.7-7 1.8 1.6 2.9 3.9 3.2 6.6-3.2 0-6.5-.1-9.7-.1zM200.4 105c-3.2 0-4.3-.6-4.3-3.9V57.2h-7.5V102c0 6.2 1.6 10.4 9.3 10.4 1.3 0 2.6-.1 4-.3h.2v-7h-.5c-.4-.1-.8-.1-1.2-.1zm37.3-16.3v13.2c-2.7 2-6 3-9.8 3-5.9 0-12.1-3.1-12.1-12V76.1c0-8.8 6.6-12 12.7-12 4 0 8.5 1.5 11.2 3.7l.4.3 4.1-6.4-.3-.3c-4.1-3.3-9.2-4.9-15.4-4.9-12.1 0-20.9 7.6-20.9 18v19.7c0 11.9 10.2 18.1 20.3 18.1 7.2 0 13.8-2.7 17.7-7.2l.1-.1V83.3h-19.2l11.2 5.4zm-72.5-16.9c-5.9 0-10.8 1.5-14.9 4.7l-.3.3 3.8 5.9.4-.3c2.9-2.3 6.3-3.5 10.6-3.5 5.8 0 8.3 2 8.3 6.8v2.5h-10.9c-5.6 0-14.5 3.2-14.5 11.9 0 7.3 5 12.1 12.8 12.1 2.9 0 6.4-.5 12.7-3.9l.8 3.6h6.7V85.8c-.2-9.4-5.2-14-15.5-14zm7.7 29.4c-3.6 2-7.7 4-11.2 4-4 0-6.3-1.9-6.3-5.2 0-3.7 2.6-5.5 7.8-5.5h9.8v6.7zm92.9 3.8c-3.2 0-4.3-.6-4.3-3.9V57.2H254V102c0 6.2 1.6 10.4 9.3 10.4 1.3 0 2.6-.1 4-.3h.2v-7h-.5c-.4-.1-.8-.1-1.2-.1z"/></svg>