<svg id="mapbox-flat-neg" xmlns="http://www.w3.org/2000/svg" width="569" height="128" viewBox="0 0 569 128"><style>.st0{fill:#fff}</style><path class="st0" d="M424.4 35.1c-7.1 0-14 3-18.9 8.1V15.8c0-.9-.7-1.6-1.6-1.6h-9.6c-.9 0-1.6.7-1.6 1.6V90c0 .9.7 1.6 1.6 1.6h9.6c.9 0 1.6-.7 1.6-1.6v-5.1c4.9 5.2 11.8 8.1 18.9 8.1 15 0 27.2-13 27.2-28.9s-12.2-29-27.2-29zm-2.3 46.3c-9.1 0-16.5-7.7-16.6-17.2v-.4c.1-9.5 7.5-17.2 16.6-17.2 9.2 0 16.6 7.8 16.6 17.4s-7.4 17.4-16.6 17.4zm65-46.3c-16.3 0-29.5 13-29.5 28.9s13.2 28.9 29.5 28.9 29.5-13 29.5-28.9-13.3-28.9-29.5-28.9zm-.2 46.3c-9.2 0-16.6-7.8-16.6-17.4s7.5-17.4 16.6-17.4 16.6 7.8 16.6 17.4-7.4 17.4-16.6 17.4zM307 36.5h-9.6c-.9 0-1.6.7-1.6 1.6v5.1c-4.9-5.2-11.8-8.1-18.9-8.1-15 0-27.2 13-27.2 28.9s12.2 28.9 27.2 28.9c7.1 0 14-3 18.9-8.1v5.1c0 .9.7 1.6 1.6 1.6h9.6c.9 0 1.6-.7 1.6-1.6V38.1c0-.9-.7-1.6-1.6-1.6zm-27.9 44.9c-9.2 0-16.6-7.8-16.6-17.4s7.5-17.4 16.6-17.4c9.1 0 16.5 7.7 16.6 17.2v.4c0 9.5-7.4 17.2-16.6 17.2zm76.1-46.3c-7.1 0-14 3-18.9 8.1v-5.1c0-.9-.7-1.6-1.6-1.6h-9.6c-.9 0-1.6.7-1.6 1.6v74.2c0 .9.7 1.6 1.6 1.6h9.6c.9 0 1.6-.7 1.6-1.6V84.8c4.9 5.2 11.8 8.1 18.9 8.1 15 0 27.2-13 27.2-28.9s-12.2-28.9-27.2-28.9zm-2.3 46.3c-9.1 0-16.5-7.7-16.6-17.2v-.4c.1-9.5 7.5-17.2 16.6-17.2 9.2 0 16.6 7.8 16.6 17.4s-7.4 17.4-16.6 17.4zM220.8 35.1c-7.2.1-13.8 4.3-16.8 10.8-3.6-6.7-10.6-10.9-18.2-10.8-5.9 0-11.4 2.9-14.9 7.6v-4.6c0-.9-.7-1.6-1.6-1.6h-9.6c-.9 0-1.6.7-1.6 1.6v51.8c0 .9.7 1.6 1.6 1.6h9.6c.9 0 1.6-.7 1.6-1.6v-31c.4-6.9 5.2-12.4 11.1-12.4 6.1 0 11.2 5.1 11.2 11.8v31.6c0 .9.7 1.6 1.6 1.6h9.7c.9 0 1.6-.7 1.6-1.6l-.1-32.2c.8-6.3 5.4-11.2 11-11.2 6.1 0 11.2 5.1 11.2 11.8v31.6c0 .9.7 1.6 1.6 1.6h9.7c.9 0 1.6-.7 1.6-1.6l-.1-35.6c0-10.6-9-19.2-20.2-19.2zm347.5 54.2l-16.7-25.4 16.5-25.2c.4-.7.3-1.6-.4-2-.2-.2-.5-.2-.8-.2h-11.1c-.8 0-1.6.4-2.1 1.2L544 54l-9.7-16.3c-.4-.7-1.2-1.2-2.1-1.2h-11.1c-.8 0-1.4.6-1.4 1.4 0 .3.1.6.2.8l16.5 25.2-16.7 25.4c-.4.7-.3 1.6.4 2 .2.2.5.2.8.2H532c.8 0 1.6-.4 2.1-1.2l9.9-16.6 9.9 16.6c.4.7 1.2 1.2 2.1 1.2h11.1c.8 0 1.4-.6 1.4-1.4.1-.3 0-.6-.2-.8zM64 0C28.7 0 0 28.7 0 64s28.7 64 64 64 64-28.7 64-64S99.3 0 64 0zm30.4 79.7c-21.9 21.9-60.9 14.9-60.9 14.9s-7-39 14.9-60.9c12.1-12.1 32.3-11.7 45 1s13.1 32.8 1 45z"/><path class="st0" d="M71.3 37.5l-6.2 12.9-12.9 6.3 12.9 6.2 6.2 12.9 6.3-12.9 12.9-6.2-12.9-6.3z"/></svg>