<svg id="Layer_1" xmlns="http://www.w3.org/2000/svg" width="547" height="174" viewBox="136 123 547 174"><style>.st0{fill:#fff}</style><title>Artboard 13 copy</title><path class="st0" d="M302.9 286.5v-22.1H318v3.4h-11.3v5.7h11.1v3.4h-11.1v6.1H318v3.4l-15.1.1zm28.8 0v-1.7c-1.3 1.4-3.2 2.2-5.2 2.1-2.9.1-5.4-2.1-5.6-5.1v-.2c0-3.7 3-5.2 5.6-5.2 1.9-.1 3.8.6 5.2 2.1V276c0-1.9-1.5-3-3.8-3-1.8 0-3.5.7-4.8 2l-1.4-2.4c1.8-1.7 4.2-2.6 6.7-2.6 3.5 0 6.7 1.5 6.7 5.8v10.6l-3.4.1zm0-3.7v-2.4c-.9-1.1-2.4-1.7-3.8-1.7-2 0-3.4 1.1-3.4 2.9s1.5 2.9 3.4 2.9c1.4.1 2.9-.5 3.8-1.7zm8 3.7v-16h3.5v2.3c1.2-1.6 3.2-2.6 5.2-2.7v3.5c-.4-.1-.7-.1-1.1-.1-1.6.1-3.1.9-4.1 2.1v10.9h-3.5zm12.2-3.7v-9.3h-2.7v-3h2.7v-4.4h3.5v4.4h3.2v3h-3.2v8.4c0 1.1.5 1.9 1.5 1.9.6 0 1.1-.2 1.6-.6l.8 2.6c-.9.7-2.1 1.1-3.3 1-2.7.1-4.1-1.4-4.1-4zm20.8 3.7v-10.1c0-2.5-1.3-3.2-3.2-3.2-1.6.1-3.1.9-4.1 2.2v11.2h-3.5v-22.1h3.5v8.3c1.4-1.6 3.5-2.6 5.7-2.6 3.5 0 5.2 1.8 5.2 5.1v11.4l-3.6-.2zm16.6 0v-22.1h3.9v22.1h-3.9zm28.2 0V276c0-1.7-.8-2.9-2.6-2.9-1.5.1-2.9.9-3.7 2.1v11.2h-3.5V276c0-1.7-.8-2.9-2.7-2.9-1.5.1-2.9.9-3.7 2.2v11.2h-3.5v-16h3.5v2.2c1.3-1.6 3.2-2.5 5.2-2.6 2-.2 3.8 1.1 4.4 3 1.2-1.8 3.3-2.9 5.5-3 3 0 4.6 1.6 4.6 4.9v11.6l-3.5-.1zm17.7 0v-1.7c-1.3 1.4-3.2 2.2-5.2 2.1-2.9.1-5.4-2.1-5.6-5.1v-.2c0-3.7 3-5.2 5.6-5.2 1.9-.1 3.8.6 5.2 2.1V276c0-1.9-1.5-3-3.8-3-1.8 0-3.5.7-4.8 2l-1.4-2.4c1.8-1.7 4.2-2.6 6.7-2.6 3.5 0 6.7 1.5 6.7 5.8v10.6l-3.4.1zm0-3.7v-2.4c-.9-1.1-2.4-1.7-3.8-1.7-2 0-3.4 1.1-3.4 2.9s1.5 2.9 3.4 2.9c1.5.1 2.9-.5 3.8-1.7zm7.8 7.8l1.6-2.5c1.3 1.4 3.2 2.2 5.1 2.1 2.3 0 4.8-1.1 4.8-4.4v-2c-1.2 1.6-3.1 2.6-5.1 2.7-4.1 0-7.1-3-7.1-8.2s3-8.2 7.1-8.2c2 0 3.9 1 5.1 2.6v-2.2h3.5v15.2c0 5.8-4.3 7.3-8.2 7.3-2.5.1-5-.7-6.8-2.4zm11.5-9.3v-6c-1-1.3-2.5-2.1-4.1-2.2-2.8 0-4.5 2.1-4.5 5.1s1.8 5.1 4.5 5.1c1.6.1 3.1-.7 4.1-2zm7-2.8c-.2-4.5 3.3-8.2 7.8-8.4h.3c4.8 0 7.9 3.7 7.9 8.7v.8h-12.4c.2 2.6 2.5 4.6 5.1 4.4 1.7 0 3.3-.6 4.5-1.8l1.6 2.3c-1.8 1.6-4.1 2.4-6.5 2.3-4.4.2-8.2-3.3-8.4-7.7.1-.2.1-.4.1-.6zm8.1-5.6c-2.4-.1-4.4 1.8-4.5 4.2h9c0-2.4-1.9-4.3-4.3-4.3-.1.1-.1.1-.2.1zm11.4 13.6v-16h3.5v2.3c1.2-1.6 3.2-2.6 5.2-2.7v3.5c-.4-.1-.7-.1-1.1-.1-1.6.1-3.1.9-4.1 2.1v10.9H481zm11.3 3.1c.4.2.9.3 1.3.3 1 .1 2-.4 2.3-1.4l.8-1.8-6.6-16.2h3.7l4.7 12 4.7-12h3.7l-7.7 18.9c-1.1 2.7-3 3.6-5.5 3.6-.7 0-1.3-.1-2-.2l.6-3.2zm26.3-3.1v-13h-2.7v-3h2.7v-.9c0-3.5 2-5.5 5.1-5.5 1.4-.1 2.8.4 3.8 1.4l-1.4 2.2c-.5-.5-1.2-.7-1.9-.7-1.4 0-2.2.9-2.2 2.7v.9h3.2v3H522v13h-3.4zm8.4-8c0-4.6 3.2-8.4 8.2-8.4s8.3 3.8 8.3 8.4-3.1 8.4-8.3 8.4-8.2-3.8-8.2-8.4zm12.9 0c0-2.8-1.7-5.3-4.7-5.3s-4.6 2.5-4.6 5.3 1.7 5.4 4.6 5.4 4.6-2.6 4.7-5.4zm7.1 8v-16h3.5v2.3c1.2-1.6 3.2-2.6 5.2-2.7v3.5c-.4-.1-.7-.1-1.1-.1-1.6.1-3.1.9-4.1 2.1v10.9H547zm20.1 0v-22.1h3.9v22.1h-3.9zm28.2 0V276c0-1.7-.8-2.9-2.6-2.9-1.5.1-2.9.9-3.7 2.1v11.2h-3.5V276c0-1.7-.8-2.9-2.7-2.9-1.5.1-2.9.9-3.7 2.2v11.2h-3.5v-16h3.5v2.2c1.3-1.6 3.2-2.5 5.2-2.6 2-.2 3.8 1.1 4.4 3 1.2-1.8 3.3-2.9 5.5-3 3 0 4.6 1.6 4.6 4.9v11.6l-3.5-.1zm11.5-2.2v8.3h-3.5v-22.1h3.5v2.2c1.2-1.6 3.1-2.6 5.2-2.6 4.2 0 7.1 3.1 7.1 8.4s-3 8.4-7.1 8.4c-2.1 0-4-1-5.2-2.6zm8.6-5.8c0-3.1-1.8-5.3-4.5-5.3-1.6 0-3.2.8-4.1 2.2v6.3c1 1.3 2.5 2.1 4.1 2.2 2.8-.1 4.5-2.3 4.5-5.4zm16.9 8v-1.7c-1.3 1.4-3.2 2.2-5.2 2.1-2.9.1-5.4-2.1-5.6-5.1v-.2c0-3.7 3-5.2 5.6-5.2 1.9-.1 3.8.6 5.2 2.1V276c0-1.9-1.5-3-3.8-3-1.8 0-3.5.7-4.8 2l-1.4-2.4c1.8-1.7 4.2-2.6 6.7-2.6 3.5 0 6.7 1.5 6.7 5.8v10.6l-3.4.1zm0-3.7v-2.4c-.9-1.1-2.4-1.7-3.8-1.7-2 0-3.4 1.1-3.4 2.9s1.5 2.9 3.4 2.9c1.4.1 2.8-.5 3.8-1.7zm7-4.3c-.2-4.4 3.2-8.2 7.6-8.4h.7c2.4-.1 4.7.9 6.1 2.9l-2.3 2.1c-.8-1.2-2.2-1.9-3.7-1.9-2.9 0-4.8 2.2-4.8 5.3s1.9 5.4 4.8 5.4c1.5 0 2.9-.7 3.7-1.9l2.3 2.1c-1.4 1.9-3.7 3-6.1 2.9-4.4.1-8.2-3.4-8.3-7.8v-.7zm18.2 4.3v-9.3h-2.7v-3h2.7v-4.4h3.5v4.4h3.2v3H661v8.4c0 1.1.5 1.9 1.5 1.9.6 0 1.1-.2 1.6-.6l.8 2.6c-.9.7-2.1 1.1-3.3 1-2.7.1-4.1-1.4-4.1-4zm-367.4-44.3h13.6v-83.8h-13.6V153h23.3c1 0 2 0 2.9-.1 1 0 2-.1 2.9-.2 1 0 2 0 2.9-.1 1 0 2-.1 2.9-.1 4.3 0 8.5.2 12.7.8 3.8.6 7.3 2.2 10.3 4.6 2.6 1.9 4.7 4.5 6.1 7.5 1.1 2.5 1.7 5.1 1.7 7.8 0 1.6-.3 3.2-.7 4.7-.6 2.1-1.6 4.1-2.9 5.9-1.8 2.2-4 4.1-6.5 5.5-3.5 1.9-7.4 3-11.4 3.4v.2c1.3.2 3.1.5 5.3.9 2.4.5 4.7 1.3 6.9 2.3 2.3 1.1 4.5 2.5 6.4 4.2 2 1.8 3.5 4.2 4.2 6.8.5 1.8.8 3.7 1 5.6.2 2.1.4 4.2.5 6.4.1 2.2.2 4.3.4 6.4.1 1.7.3 3.5.7 5.1.5 2 1.2 4 2.3 5.8 1.1 1.7 3.1 2.7 5.1 2.6 1.1 0 2.3-.2 3.3-.6 1.2-.4 2.2-1.1 3.1-2l1.1 1.4c-.4.3-.9.7-1.4 1-.6.4-1.3.7-2 1-1 .4-2 .6-3 .8-1.4.2-2.9.3-4.4.3-2.8.1-5.5-.3-8.1-1.2-2-.7-3.8-2-5.2-3.6-1.4-1.7-2.4-3.7-2.9-5.9-.7-2.7-1.1-5.4-1.3-8.1l-.9-11.1c-.1-3.3-1-6.6-2.5-9.6-1.1-2-2.7-3.8-4.6-5-1.7-1-3.5-1.7-5.5-1.9-1.6-.2-3.3-.3-4.9-.3H316v44.2h13.6v1.7h-39.5v-1.6zm25.9-45.9h11.3c2.1 0 4.2-.3 6.2-.9 1.9-.6 3.5-1.6 4.8-3 1.5-1.7 2.6-3.7 3.1-5.8.8-3 1.2-6.2 1.1-9.3.1-3.5-.4-7-1.6-10.2-.9-2.3-2.4-4.3-4.3-5.8-1.7-1.3-3.7-2.2-5.9-2.6-2.1-.4-4.3-.6-6.4-.6-1.5 0-3 0-4.5.1-1.3 0-2.6.1-3.9.3l.1 37.8zm112.6 46.2c-1.2.9-2.4 1.6-3.8 2.1-1.7.7-3.6 1-5.4.9-3.9 0-6.8-.8-8.5-2.5-1.9-1.9-3.1-4.4-3.6-7h-.3c-.3.7-.8 1.7-1.4 2.8-.7 1.2-1.6 2.3-2.6 3.2-1.4 1.1-3 2-4.7 2.6-2.4.7-4.9 1.1-7.5 1-2.8.1-5.6-.3-8.2-1.2-1.8-.6-3.4-1.6-4.8-2.9-1.1-1.1-1.9-2.4-2.3-3.9-.4-1.3-.5-2.6-.5-4-.1-2.4.5-4.8 1.7-6.9 1.1-1.7 2.7-3.1 4.5-4.1 1.9-1.1 4-1.9 6.1-2.5 2.2-.7 4.5-1.4 6.8-2.1 2.7-.9 4.9-1.7 6.7-2.3 1.5-.5 2.9-1.3 4.1-2.4 1-1 1.7-2.2 2-3.5.4-1.9.6-3.9.5-5.8 0-1.8-.1-3.5-.4-5.3-.2-1.4-.7-2.8-1.4-4-.7-1.1-1.6-2-2.8-2.5-1.6-.6-3.2-.9-4.9-.9-2.3-.1-4.6.4-6.7 1.4-1.7.9-2.8 2.7-2.6 4.6 0 1.4.1 2.7.4 4.1.2 1 .3 2 .4 3 0 1.1-.4 2.1-1.2 2.9-1 .8-2.3 1.2-3.5 1.2-2.7 0-4.3-.5-5-1.5-.7-1.1-1.1-2.5-1-3.8 0-1.8.4-3.6 1.2-5.1.9-1.7 2.1-3.2 3.6-4.4 1.8-1.4 3.8-2.4 6-3 2.7-.8 5.5-1.1 8.3-1.1 3.2-.1 6.4.4 9.4 1.4 2.3.8 4.4 2.1 6.1 3.8 1.5 1.5 2.6 3.4 3.3 5.4.7 2 1 4.2 1 6.3v30.5c0 2.4.4 4 1.1 4.8.8.9 2 1.3 3.2 1.2 1 0 1.9-.2 2.8-.5 1-.3 2-.8 2.8-1.5l1.1 1.5zm-21.5-28.7h-.2c-.2 1.1-1.5 2.1-4 3.2l-9.2 3.7c-2.4.9-4.5 2.4-6 4.5-1.4 2.1-2.2 4.6-2.1 7.2 0 1.3.1 2.5.4 3.8.2 1.2.7 2.4 1.4 3.5s1.6 1.9 2.8 2.5c1.4.7 3 1.1 4.6 1 2.3.1 4.6-.5 6.5-1.7 1.6-1.1 2.9-2.6 3.8-4.3.9-1.8 1.4-3.6 1.7-5.6.3-1.8.4-3.6.4-5.5l-.1-12.3zm51.9-58.2h20v86.6h9.4v1.7h-19.8v-10.6h-.2c-.4 1.2-.9 2.4-1.5 3.5-.7 1.5-1.7 2.8-2.9 4-1.4 1.4-3 2.5-4.8 3.4-2.2 1-4.6 1.5-7 1.4-3.5 0-7.1-.7-10.3-2.3-3.2-1.5-6.1-3.7-8.5-6.2-2.5-2.6-4.4-5.7-5.8-9-2.8-6.8-2.9-14.4-.1-21.3 2.6-6.5 7.6-11.7 13.8-14.8 3.1-1.5 6.5-2.3 9.9-2.3 4.5 0 8.1 1.1 10.9 3.3 2.7 2.1 4.7 4.9 5.9 8.1h.2v-43.9H459v-1.6zm-21.2 60.3c0 4.2.1 8.1.4 11.6.2 3 .8 6 1.8 8.9.9 2.3 2.4 4.3 4.4 5.6 5.1 2.7 11.2 2.6 16.2-.2 2.1-1.5 3.7-3.4 4.8-5.7 1.2-2.5 2-5.1 2.3-7.8.4-2.8.6-5.5.6-8.3 0-3.2-.1-5.9-.2-8.3-.1-2.1-.3-4.1-.7-6.2-.3-1.6-.7-3.2-1.4-4.7-.6-1.3-1.3-2.5-2.1-3.7-1.3-1.7-2.9-3-4.8-4-2.3-1.1-4.9-1.7-7.5-1.6-2.4-.1-4.9.5-7 1.7-1.9 1.2-3.4 2.9-4.3 4.9-1.1 2.4-1.8 5-2.1 7.7-.2 3.3-.4 6.7-.4 10.1zm52.5 26.3h9.4v-49.1h-9.4v-1.7h20v50.9h9.4v1.7h-29.4v-1.8zm8-79.4c0-3.6 2.9-6.5 6.5-6.5s6.5 2.9 6.5 6.5-2.9 6.5-6.5 6.5c-1.7 0-3.4-.7-4.6-1.9-1.2-1.2-1.9-2.9-1.9-4.6zm76.1 79.7c-1.2.9-2.4 1.6-3.8 2.1-1.7.7-3.6 1-5.4.9-3.9 0-6.8-.8-8.5-2.5-1.9-1.9-3.1-4.4-3.6-7h-.2c-.3.7-.8 1.7-1.3 2.8-.7 1.2-1.6 2.3-2.6 3.2-1.4 1.1-3 2-4.7 2.6-2.4.7-4.9 1.1-7.5 1-2.8.1-5.6-.3-8.2-1.2-1.8-.6-3.4-1.6-4.8-2.9-1.1-1.1-1.9-2.4-2.3-3.9-.4-1.3-.5-2.6-.5-4-.1-2.4.5-4.8 1.7-6.9 1.1-1.7 2.7-3.1 4.5-4.1 1.9-1.1 4-1.9 6.1-2.5 2.2-.7 4.5-1.4 6.8-2.1 2.7-.9 4.9-1.7 6.7-2.3 1.5-.5 2.9-1.3 4.1-2.4 1-1 1.7-2.2 2-3.5.4-1.9.6-3.9.5-5.8 0-1.8-.1-3.5-.4-5.3-.2-1.4-.7-2.8-1.3-4-.7-1.1-1.6-2-2.8-2.5-1.6-.6-3.2-.9-4.9-.9-2.3-.1-4.6.4-6.7 1.4-1.7.9-2.8 2.7-2.6 4.6 0 1.4.1 2.7.4 4.1.2 1 .3 2 .4 3 0 1.1-.4 2.1-1.2 2.9-1 .8-2.3 1.2-3.5 1.2-2.7 0-4.3-.5-5-1.5-.7-1.1-1.1-2.5-1-3.8 0-1.8.4-3.6 1.2-5.1.9-1.7 2.1-3.2 3.6-4.4 1.8-1.4 3.8-2.4 6-3 2.7-.8 5.5-1.1 8.3-1.1 3.2-.1 6.4.4 9.4 1.4 2.3.8 4.4 2.1 6.1 3.8 1.5 1.5 2.6 3.4 3.3 5.4.7 2 1 4.2 1 6.3v30.5c0 2.4.4 4 1.1 4.8.8.9 2 1.3 3.2 1.2 1 0 1.9-.2 2.8-.5 1-.3 2-.8 2.8-1.5l.8 1.5zm-21.5-28.7h-.2c-.2 1.1-1.5 2.1-4 3.2l-9.2 3.7c-2.4.9-4.5 2.4-6 4.5-1.4 2.1-2.2 4.6-2.1 7.2 0 1.3.1 2.5.4 3.8.2 1.2.7 2.4 1.3 3.5.7 1.1 1.6 1.9 2.8 2.5 1.4.7 3 1.1 4.6 1 2.3.1 4.6-.5 6.5-1.7 1.6-1.1 2.9-2.6 3.8-4.3.9-1.8 1.4-3.6 1.7-5.6.3-1.8.4-3.6.4-5.5v-12.3z"/><path class="st0" d="M572.9 238.5h9.4v-49.1h-9.4v-1.7h19.7v13.1h.2c.5-1.1 1.2-2.4 2.1-4 1-1.8 2.3-3.4 3.9-4.8 4.1-3.8 9.5-5.8 15.1-5.6 5.4 0 9.8 1.3 13.2 3.9s5.1 6.8 5.1 12.5v35.8h9.4v1.7h-29.4v-1.7h9.4V199c.1-2.8-.7-5.5-2.3-7.8-1.5-2-3.8-3.1-7-3.1-2.6 0-5.1.6-7.5 1.7-2.4 1.2-4.5 2.8-6.2 4.8-1.8 2.1-3.3 4.6-4.2 7.2-1 2.9-1.6 6-1.5 9.1v27.7h9.4v1.7h-29.4v-1.8zm66.5-50.8h9.4v-15.8c.7.2 1.3.4 1.8.6 1 .2 2 .3 2.9.2 1.1 0 2.2-.1 3.2-.4.9-.3 1.8-.8 2.6-1.4v16.8h17.4v1.7h-17.4v40.1c-.1 1.9.2 3.8.7 5.6.3 1.2.9 2.4 1.8 3.3.6.7 1.5 1.2 2.4 1.5.8.2 1.7.4 2.5.4 2.7.1 5.2-1.1 6.9-3.1 1.7-2 2.9-4.5 3.4-7.2l1.7.6c-.3 1.2-.7 2.4-1.1 3.5-.5 1.4-1.3 2.6-2.3 3.7a10.3 10.3 0 0 1-4 2.9c-1.9.8-4 1.2-6.1 1.2-6.1 0-10.4-1.2-12.8-3.5s-3.6-5.7-3.6-10v-39h-9.4v-1.7z"/><circle class="st0" cx="202.3" cy="171.5" r="7.6"/><circle class="st0" cx="177.8" cy="232.9" r="20.4"/><circle class="st0" cx="267.4" cy="202.8" r="11.1"/><circle class="st0" cx="215.9" cy="169.4" r="5.5"/><circle class="st0" cx="148.9" cy="178.4" r="5.5"/><circle class="st0" cx="206.8" cy="133.4" r="5.5"/><circle class="st0" cx="267.7" cy="221.2" r="5.5"/><circle class="st0" cx="184.6" cy="190.4" r="5.5"/><circle class="st0" cx="172.9" cy="164.9" r="20.4"/><circle class="st0" cx="239.7" cy="247.6" r="7.6"/><circle class="st0" cx="212.1" cy="256.1" r="7.6"/><circle class="st0" cx="252.1" cy="189" r="7.6"/><circle class="st0" cx="244.2" cy="151.5" r="5.5"/><circle class="st0" cx="180.6" cy="205.9" r="5.5"/><circle class="st0" cx="233.6" cy="166.5" r="11.1"/><circle class="st0" cx="235.8" cy="233.9" r="5.5"/><circle class="st0" cx="202.5" cy="245" r="5.5"/><circle class="st0" cx="257.3" cy="154.7" r="5.5"/><circle class="st0" cx="146.6" cy="194.9" r="5.5"/><circle class="st0" cx="195.8" cy="151.7" r="5.5"/><circle class="st0" cx="193.1" cy="137.8" r="7.6"/><circle class="st0" cx="211.6" cy="230.2" r="11.1"/><circle class="st0" cx="254" cy="234.2" r="11.1"/><circle class="st0" cx="155.3" cy="210" r="11.1"/><circle class="st0" cx="189.7" cy="256.3" r="5.5"/><circle class="st0" cx="210.8" cy="156.3" r="7.6"/><circle class="st0" cx="201.7" cy="171.5" r="7.6"/><circle class="st0" cx="273.1" cy="185.9" r="5.5"/><circle class="st0" cx="222.7" cy="139.8" r="11.1"/><circle class="st0" cx="215.8" cy="196.8" r="20.4"/><circle class="st0" cx="227.2" cy="256.1" r="5.5"/><circle class="st0" cx="250.1" cy="214.1" r="7.6"/><circle class="st0" cx="233.8" cy="219.3" r="7.6"/><circle class="st0" cx="171.4" cy="196" r="7.6"/><circle class="st0" cx="240.6" cy="140.7" r="5.5"/><circle class="st0" cx="262" cy="171.5" r="11.1"/></svg>