<?xml version="1.0" encoding="utf-8"?>
<!-- Generator: Adobe Illustrator 19.0.0, SVG Export Plug-In . SVG Version: 6.00 Build 0)  -->
<svg version="1.1" id="Layer_1" xmlns="http://www.w3.org/2000/svg" xmlns:xlink="http://www.w3.org/1999/xlink" x="0px" y="0px"
	 viewBox="0 0 88 79.3" style="enable-background:new 0 0 88 79.3;" xml:space="preserve">
<style type="text/css">
	.st0{fill:#FFFFFF;}
	.st1{fill:none;}
</style>
<path class="st0" d="M78.8,63.6C78.8,63.6,78.8,63.6,78.8,63.6L64.4,49.3c0,0,0,0,0,0s0,0,0,0l-4.8-4.8c-0.4-0.4-0.9-0.4-1.3,0
	l-1.1,1.1L55.6,44l0.8-0.8c0.1-0.1,0.1-0.2,0.2-0.2c0,0,0.1,0,0.1-0.1c0.1-0.1,0.2-0.2,0.2-0.3c1-1.2,1.5-2.7,1.5-4.3
	c0-1.6-0.5-3.1-1.5-4.3l1-1.2c4.1,2.6,8.8,2.8,11.5,0.2c0.2-0.2,0.3-0.4,0.3-0.9c0-1.8-4.3-6.5-6.2-8.4l0.8-0.8
	c0.4,0.1,0.9-0.1,1.2-0.4c0.6-0.6,0.6-1.5,0-2.1c-0.6-0.6-1.5-0.6-2.1,0c-0.3,0.3-0.5,0.8-0.4,1.2l-0.8,0.8
	c-1.8-1.8-3.6-3.4-5.1-4.5c-2.3-1.7-3.4-2.1-4.2-1.4c0,0-0.1,0.1-0.1,0.2c-1.2,1.3-1.8,3-1.8,4.8c0,2.1,0.7,4.4,2.1,6.5l-1.2,1
	c-2.5-2-6.1-2-8.6,0c-0.1,0-0.2,0.1-0.3,0.2c0,0-0.1,0.1-0.1,0.1c-0.1,0.1-0.2,0.1-0.2,0.2l-0.8,0.8l-1.6-1.6l1.1-1.1
	c0.4-0.4,0.4-0.9,0-1.3L32,16.9c0,0,0,0,0,0c0,0,0,0,0,0l-9.5-9.5c-0.4-0.4-0.9-0.4-1.3,0L15.5,13c0,0,0,0,0,0c0,0,0,0,0,0l-5.7,5.7
	c-0.1,0.1-0.2,0.2-0.2,0.3c0,0.1-0.1,0.2-0.1,0.3s0,0.2,0.1,0.3c0,0.1,0.1,0.2,0.2,0.3l4.8,4.8v0c0,0,0,0,0,0L28.9,39
	c0.4,0.4,0.9,0.4,1.3,0l1.1-1.1l1.6,1.6l-0.8,0.8c-0.1,0.1-0.1,0.2-0.2,0.2c0,0-0.1,0-0.1,0.1c-0.1,0.1-0.2,0.2-0.2,0.3
	c-1,1.2-1.5,2.7-1.5,4.3c0,1.4,0.4,2.8,1.2,4l1.2,1.4l2.8,2.8l1.4,1.2c2.5,1.8,5.9,1.7,8.4-0.2c0.1,0,0.2-0.1,0.3-0.2
	c0,0,0.1-0.1,0.1-0.1c0.1-0.1,0.2-0.1,0.2-0.2l0.8-0.8l1.6,1.6l-1.1,1.1c-0.2,0.2-0.3,0.4-0.3,0.6c0,0.2,0.1,0.5,0.3,0.6l19.1,19.1
	c0.1,0.1,0.2,0.2,0.3,0.2c0.3,0.1,0.7,0.1,1-0.2l11.3-11.3C79.1,64.6,79.1,64,78.8,63.6z M72.1,59.5l-4.4,4.4l-3.5-3.5l4.4-4.4
	L72.1,59.5z M67.3,54.7l-4.4,4.4l-3.5-3.5l4.4-4.4L67.3,54.7z M59,46.5l3.5,3.5l-4.4,4.4l-3.5-3.5l1.1-1.1c0,0,0,0,0,0l0.6-0.6
	L59,46.5z M56,46.9l-0.9,0.9l-1.6-1.6l0.9-0.9L56,46.9z M53.8,49.1l-1.1,1.1c0,0,0,0,0,0s0,0,0,0l-1.1,1.1L50,49.7l2.2-2.2
	L53.8,49.1z M62.4,25c2.5,2.5,4.1,4.5,4.9,5.7c-1.2-0.8-3.2-2.4-5.7-4.9L62.4,25z M61.1,23.7l-0.8,0.8c-2.4-2.5-4-4.5-4.9-5.7
	C56.6,19.6,58.6,21.2,61.1,23.7z M53.5,19.2c1.5,2.6,5.2,6.3,6.1,7.2c3.1,3.1,5.5,5.1,7.2,6.1c-2.8,1.2-6.9,0-10.2-3.2
	C53.5,26.2,52.3,22,53.5,19.2z M56.5,31.7l-0.8,0.9l-2.3-2.3l0.9-0.8c0.3,0.4,0.7,0.8,1,1.1C55.8,31,56.1,31.4,56.5,31.7z
	 M51.5,30.9l3.7,3.7c1,1,1.5,2.3,1.5,3.7c0,0.9-0.3,1.8-0.7,2.6L45.2,30.1C47.2,29,49.8,29.2,51.5,30.9z M40.8,31.7l-0.9,0.9
	l-1.6-1.6l0.9-0.9L40.8,31.7z M38.6,33.9l-2.2,2.2l-1.6-1.6l1.1-1.1c0,0,0,0,0,0s0,0,0,0l1.1-1.1L38.6,33.9z M39.6,27l-4.4,4.4
	l-3.5-3.5l4.4-4.4L39.6,27z M34.8,22.3l-4.4,4.4L27,23.2l4.4-4.4L34.8,22.3z M30.1,17.5l-4.4,4.4l-3.5-3.5l4.4-4.4L30.1,17.5z
	 M21.8,9.2l3.5,3.5l-4.4,4.4l-3.5-3.5L21.8,9.2z M11.8,19.3l4.4-4.4l3.5,3.5l-4.4,4.4L11.8,19.3z M16.5,24l4.4-4.4l3.5,3.5L20,27.5
	L16.5,24z M21.3,28.8l4.4-4.4l3.5,3.5l-4.4,4.4L21.3,28.8z M29.6,37.1l-3.5-3.5l4.4-4.4l3.5,3.5L29.6,37.1z M32.6,36.6l0.9-0.9
	l1.6,1.6l-0.9,0.9L32.6,36.6z M40.8,54.1c-1.4,0-2.7-0.5-3.7-1.5l-3.7-3.7c-1-1-1.5-2.3-1.5-3.7c0-0.9,0.3-1.8,0.7-2.6l10.7,10.7
	C42.6,53.9,41.7,54.1,40.8,54.1z M44.8,52.3l-11-11l10-10l11,11L44.8,52.3z M47.8,51.8l0.9-0.9l1.6,1.6l-0.9,0.9L47.8,51.8z
	 M49,56.5l2.6-2.6l0.6-0.6c0,0,0,0,0,0l1.1-1.1l3.5,3.5L52.5,60L49,56.5z M53.8,61.3l4.4-4.4l3.5,3.5l-4.4,4.4L53.8,61.3z M58.5,66
	l4.4-4.4l3.5,3.5L62,69.5L58.5,66z M66.8,74.3l-3.5-3.5l4.4-4.4l3.5,3.5L66.8,74.3z M72.4,68.6L69,65.2l4.4-4.4l3.5,3.5L72.4,68.6z"
	/>
<path class="st0" d="M65.5,11.3c5.2,0,9.4,4.2,9.4,9.4c0,0.5,0.4,0.9,0.9,0.9c0.5,0,0.9-0.4,0.9-0.9c0-6.2-5-11.2-11.2-11.2
	c-0.5,0-0.9,0.4-0.9,0.9C64.5,10.9,64.9,11.3,65.5,11.3z"/>
<path class="st0" d="M65.5,14.8c1.6,0,3.1,0.6,4.2,1.7c1.1,1.1,1.7,2.6,1.7,4.2v0c0,0.5,0.4,0.9,0.9,0.9c0.5,0,0.9-0.4,0.9-0.9v0
	c0-2.1-0.8-4-2.3-5.5c-1.5-1.5-3.4-2.3-5.5-2.3c-0.5,0-0.9,0.4-0.9,0.9C64.5,14.4,64.9,14.8,65.5,14.8z"/>
<path class="st0" d="M47.9,38.2c-1-1-2.2-1.5-3.6-1.5s-2.6,0.5-3.6,1.5c-1,1-1.5,2.2-1.5,3.6c0,1.4,0.5,2.6,1.5,3.6c2,2,5.2,2,7.2,0
	c1-1,1.5-2.2,1.5-3.6C49.4,40.5,48.9,39.2,47.9,38.2z M46.6,44.1c-1.3,1.3-3.3,1.3-4.6,0c-1.2-1.2-1.2-3.4,0-4.6
	c0.6-0.6,1.4-1,2.3-1c0.9,0,1.7,0.3,2.3,1c0.6,0.6,1,1.4,1,2.3C47.6,42.7,47.3,43.5,46.6,44.1z"/>
<path class="st0" d="M65.5,18.2c1.4,0,2.5,1.1,2.5,2.5c0,0.5,0.4,0.9,0.9,0.9c0.5,0,0.9-0.4,0.9-0.9c0-2.4-1.9-4.3-4.3-4.3
	c-0.5,0-0.9,0.4-0.9,0.9C64.5,17.8,64.9,18.2,65.5,18.2z"/>
<g>
	<path class="st1" d="M31.2,44c0,0.8,0.3,1.5,0.8,2l8.9,8.9c0.9,0.9,2.3,1.1,3.3,0.5L31.6,42.7C31.3,43.1,31.2,43.5,31.2,44z"/>
	<polygon class="st1" points="33.6,54.6 35.5,56.5 37.3,53.6 35.9,52.3 	"/>
	<polygon class="st1" points="38.1,59.1 39.4,55.7 38.5,54.8 36.7,57.7 	"/>
	<polygon class="st1" points="32.1,48.5 31.2,47.6 31.1,47.6 32.1,48.5 	"/>
	<polygon class="st1" points="32.4,53.4 34.7,51.1 33.3,49.7 30.5,51.5 	"/>
	<polygon class="st1" points="34.7,51.1 33.4,49.7 33.3,49.7 34.7,51.1 	"/>
	<polygon class="st1" points="29.3,50.3 32.1,48.5 31.1,47.6 27.9,48.9 	"/>
	<path class="st0" d="M32.4,53.4l-1.9-1.9l2.8-1.8l-1.3-1.2l-2.8,1.8l-1.4-1.4l3.3-1.2l0-1.8l-5.1,2c-0.3,0.1-0.5,0.3-0.5,0.6
		c-0.1,0.3,0,0.6,0.2,0.8l12.1,12.1c0.2,0.2,0.4,0.2,0.6,0.2c0.1,0,0.1,0,0.2,0c0.3-0.1,0.5-0.3,0.6-0.5l2.1-5.4l-6.8-4.2L32.4,53.4
		z M39.4,55.7l-1.3,3.4l-1.4-1.4l1.8-2.9L39.4,55.7z M35.5,56.5l-1.9-1.9l2.3-2.3l1.4,1.4L35.5,56.5z"/>
</g>
</svg>
